<?xml version="1.0" encoding="UTF-8" standalone="no"?>
<!-- Created with Inkscape (http://www.inkscape.org/) -->

<svg
   width="33.866669mm"
   height="32.148132mm"
   viewBox="0 0 33.866669 32.148132"
   version="1.1"
   id="svg5"
   xml:space="preserve"
   inkscape:version="1.2.2 (b0a8486541, 2022-12-01)"
   sodipodi:docname="birdsitelive.svg"
   xmlns:inkscape="http://www.inkscape.org/namespaces/inkscape"
   xmlns:sodipodi="http://sodipodi.sourceforge.net/DTD/sodipodi-0.dtd"
   xmlns="http://www.w3.org/2000/svg"
   xmlns:svg="http://www.w3.org/2000/svg"><sodipodi:namedview
     id="namedview7"
     pagecolor="#ffffff"
     bordercolor="#666666"
     borderopacity="1.0"
     inkscape:showpageshadow="2"
     inkscape:pageopacity="0.0"
     inkscape:pagecheckerboard="0"
     inkscape:deskcolor="#d1d1d1"
     inkscape:document-units="mm"
     showgrid="false"
     inkscape:zoom="1.557211"
     inkscape:cx="-22.797168"
     inkscape:cy="53.30042"
     inkscape:window-width="1920"
     inkscape:window-height="1019"
     inkscape:window-x="1920"
     inkscape:window-y="0"
     inkscape:window-maximized="1"
     inkscape:current-layer="layer1" /><defs
     id="defs2" /><g
     inkscape:label="Layer 1"
     inkscape:groupmode="layer"
     id="layer1"><path
       style="fill:#ea0027;fill-opacity:1;stroke:none;stroke-width:0.1;stroke-linecap:butt;stroke-linejoin:miter;stroke-dasharray:none;stroke-opacity:1"
       d="m 16.818535,8.3929704 c 0,0 -0.584063,-4.1277808 1.203154,-6.1142841 1.867431,-2.07564273 4.325472,-2.40603678 6.081043,-2.24246384 1.755567,0.16346331 2.507031,0.54288128 4.132887,1.63135744 1.625852,1.0884625 2.490241,2.1119618 2.490241,2.1119618 l 2.546208,-0.3215815 -1.705729,2.4975608 2.300329,0.083328 -1.187826,1.2671524 c 0,0 2.272821,8.5072466 -2.059175,14.9260226 C 26.28767,28.650771 20.32091,31.460758 15.931657,32.028008 11.631073,32.583772 5.445065,31.246791 3.4939105,27.269426 4.7714542,27.455298 5.8247859,27.46507 6.6239936,27.225706 7.669801,26.924957 8.5261133,26.266279 8.5261133,26.266279 6.091627,25.377133 4.7817565,24.491071 3.9201691,23.740924 2.6377764,22.624366 1.6367935,21.245652 1.4270542,19.56427 2.4435611,19.72084 3.3826288,19.779731 4.1176983,19.581539 3.691119,19.36923 0.99057833,17.7389 0.5130769,16.350785 0.07323493,15.072147 -0.08119657,12.544873 0.03971721,11.64505 0.71608826,11.857633 1.4300968,12.190631 2.3408672,12.170087 1.935934,12.147062 0.3550642,10.384915 0.88497887,8.8061856 1.1432734,8.0366459 1.8073356,6.253365 1.8073356,6.253365 L 2.1630283,6.7166046 C 2.1575462,5.6731093 2.1239545,4.1571232 3.0035343,3.248543 3.1664809,5.1620381 5.4432463,7.0977769 10.122752,7.6953561 13.311397,8.102541 16.81854,8.3936419 16.81854,8.3936419 Z"
       id="path7246"
       sodipodi:nodetypes="cscscccccsscccsccsccscccscc" /></g></svg>
