<?xml version="1.0" encoding="UTF-8" standalone="no"?>
<!-- Created with Inkscape (http://www.inkscape.org/) -->

<svg
   width="26.803013mm"
   height="27.607855mm"
   viewBox="0 0 26.803013 27.607855"
   version="1.1"
   id="svg5"
   xml:space="preserve"
   sodipodi:docname="gancio.svg"
   inkscape:version="1.2.2 (b0a8486541, 2022-12-01)"
   xmlns:inkscape="http://www.inkscape.org/namespaces/inkscape"
   xmlns:sodipodi="http://sodipodi.sourceforge.net/DTD/sodipodi-0.dtd"
   xmlns="http://www.w3.org/2000/svg"
   xmlns:svg="http://www.w3.org/2000/svg"><sodipodi:namedview
     id="namedview7"
     pagecolor="#ffffff"
     bordercolor="#666666"
     borderopacity="1.0"
     inkscape:showpageshadow="2"
     inkscape:pageopacity="0.0"
     inkscape:pagecheckerboard="true"
     inkscape:deskcolor="#d1d1d1"
     inkscape:document-units="mm"
     showgrid="false"
     inkscape:zoom="2.2022289"
     inkscape:cx="208.19816"
     inkscape:cy="77.194518"
     inkscape:window-width="1920"
     inkscape:window-height="1019"
     inkscape:window-x="1920"
     inkscape:window-y="0"
     inkscape:window-maximized="1"
     inkscape:current-layer="g1379" /><defs
     id="defs2" /><g
     inkscape:label="Layer 1"
     inkscape:groupmode="layer"
     id="layer1"
     transform="translate(-58.204582,-89.983772)"><g
       id="g1379"
       transform="translate(-36.804485,-8.0150495)"><path
         style="fill:#fe0505;stroke-width:1"
         d="m 104.20611,124.08064 c -3.95984,-1.64911 -5.99069,-3.43023 -7.620207,-6.68317 -1.272948,-2.54113 -1.565219,-3.90854 -1.576107,-7.37392 -0.008,-2.53814 0.04517,-3.12082 0.396691,-4.34938 0.603596,-2.10955 1.351244,-3.52542 2.523053,-4.77809 1.755608,-1.876753 3.87669,-2.686833 7.54129,-2.880164 3.16616,-0.167035 14.98574,0.934814 14.53208,1.354714 -0.0796,0.07365 -1.46351,0.267713 -3.07544,0.431254 -5.81873,0.590356 -6.24209,0.683426 -8.57028,1.884166 -1.14788,0.59202 -2.08706,1.00786 -2.08706,0.92411 0,-0.17177 1.06919,-1.21136 1.84458,-1.79351 l 0.51242,-0.38471 -1.57815,0.003 c -1.87981,0.003 -3.4429,0.34241 -4.99907,1.08511 -2.315059,1.10487 -3.392393,2.82583 -3.877987,6.19478 -0.656149,4.55222 0.252267,8.42498 2.591967,11.05006 1.06717,1.19734 3.16118,2.65493 4.3961,3.06001 l 0.93252,0.30589 v 1.3179 c 0,0.72484 -0.06,1.31543 -0.13322,1.31243 -0.0733,-0.003 -0.8622,-0.30905 -1.75318,-0.68011 z m -4.508008,-22.94601 c 1.148008,-0.77191 2.629618,-1.349211 3.892678,-1.516763 1.14226,-0.151526 1.17612,-0.429281 0.0523,-0.429281 -1.00712,0 -2.62677,0.396457 -3.55077,0.869154 -0.920131,0.47072 -1.975697,1.54243 -2.366321,2.40251 -0.533295,1.1742 -0.386148,1.29959 0.329076,0.28041 0.366346,-0.52203 1.1057,-1.24475 1.643007,-1.60603 z"
         id="path1383" /><path
         style="fill:#d6d6d6;stroke-width:1;fill-opacity:1"
         d="m 108.81561,125.40296 c -0.70038,-0.13354 -1.3598,-0.29619 -1.46539,-0.36144 -0.10882,-0.0673 -0.19198,-0.67316 -0.19198,-1.39885 v -1.28019 l 2.79755,-0.0469 c 2.99654,-0.0502 4.68674,-0.24824 5.68732,-0.66631 l 0.6246,-0.26098 -0.11251,-1.21053 c -0.0619,-0.66579 -0.20117,-1.46488 -0.30954,-1.77576 -0.19099,-0.54786 -0.26371,-0.5892 -1.44864,-0.82341 -0.27788,-0.0549 -3.92095,0.22498 -7.09725,0.54531 -1.0681,0.10772 -1.29088,0.071 -2.16459,-0.35643 -0.7588,-0.37124 -1.0134,-0.60236 -1.15255,-1.04624 -0.51814,-1.6528 -0.73236,-7.64045 -0.37253,-10.41274 0.2084,-1.60566 0.49197,-2.06884 1.56487,-2.55608 1.03757,-0.4712 3.99547,-0.60702 6.86987,-0.31545 3.24374,0.32902 7.90221,0.45879 7.90221,0.22012 0,-0.11307 0.02,-0.26309 0.0444,-0.33338 0.0244,-0.0703 -0.22235,-0.14122 -0.54839,-0.15762 -0.32603,-0.0164 -0.6773,-0.11432 -0.78058,-0.21761 -0.24771,-0.2477 0.46313,-0.42912 1.38327,-0.35303 0.58029,0.048 0.77005,0.17596 1.22642,0.82718 l 0.53991,0.77042 -0.0411,8.80409 -0.0411,8.8041 -0.93579,0.70335 c -3.18706,2.39543 -8.22402,3.6142 -11.97843,2.89836 z m 5.98149,-11.23215 0.57837,-0.11567 -0.11988,-1.43741 c -0.0659,-0.79057 -0.17694,-1.49447 -0.24669,-1.56422 -0.0697,-0.0697 -0.9891,-0.078 -2.04302,-0.0183 l -1.91621,0.10851 0.0876,0.46124 c 0.0482,0.25368 0.13962,0.9608 0.20319,1.57138 l 0.1156,1.11014 h 1.38134 c 0.75973,0 1.6416,-0.0521 1.9597,-0.11568 z"
         id="path1381" /></g></g></svg>
