<?xml version="1.0" encoding="UTF-8" standalone="no"?>
<!-- Created with Inkscape (http://www.inkscape.org/) -->

<svg
   width="89.521233"
   height="98.210114"
   id="svg2880"
   version="1.1"
   inkscape:version="1.1.1 (3bf5ae0d25, 2021-09-20, custom)"
   sodipodi:docname="GNU-social-logo.svg"
   inkscape:export-filename="/home/robmyers/Desktop/social_logo_competition/gnu-social-logo.png"
   inkscape:export-xdpi="90"
   inkscape:export-ydpi="90"
   xmlns:inkscape="http://www.inkscape.org/namespaces/inkscape"
   xmlns:sodipodi="http://sodipodi.sourceforge.net/DTD/sodipodi-0.dtd"
   xmlns="http://www.w3.org/2000/svg"
   xmlns:svg="http://www.w3.org/2000/svg"
   xmlns:rdf="http://www.w3.org/1999/02/22-rdf-syntax-ns#"
   xmlns:cc="http://creativecommons.org/ns#"
   xmlns:dc="http://purl.org/dc/elements/1.1/">
  <defs
     id="defs2882">
    <inkscape:perspective
       sodipodi:type="inkscape:persp3d"
       inkscape:vp_x="0 : 514.3912 : 1"
       inkscape:vp_y="0 : 1000 : 0"
       inkscape:vp_z="744.09448 : 514.3912 : 1"
       inkscape:persp3d-origin="372.04724 : 338.9975 : 1"
       id="perspective2888" />
    <inkscape:perspective
       id="perspective2859"
       inkscape:persp3d-origin="0.5 : -11.456553 : 1"
       inkscape:vp_z="1 : -11.289886 : 1"
       inkscape:vp_y="0 : 1000 : 0"
       inkscape:vp_x="0 : -11.289886 : 1"
       sodipodi:type="inkscape:persp3d" />
  </defs>
  <sodipodi:namedview
     id="base"
     pagecolor="#ffffff"
     bordercolor="#666666"
     borderopacity="1.0"
     inkscape:pageopacity="0.0"
     inkscape:pageshadow="2"
     inkscape:zoom="1.0757525"
     inkscape:cx="124.56397"
     inkscape:cy="33.464947"
     inkscape:document-units="px"
     inkscape:current-layer="layer1"
     showgrid="false"
     inkscape:window-width="1920"
     inkscape:window-height="1019"
     inkscape:window-x="1920"
     inkscape:window-y="0"
     inkscape:window-maximized="1"
     inkscape:pagecheckerboard="0"
     fit-margin-top="0"
     fit-margin-left="0"
     fit-margin-right="0"
     fit-margin-bottom="0" />
  <metadata
     id="metadata2885">
    <rdf:RDF>
      <cc:Work
         rdf:about="">
        <dc:format>image/svg+xml</dc:format>
        <dc:type
           rdf:resource="http://purl.org/dc/dcmitype/StillImage" />
      </cc:Work>
    </rdf:RDF>
  </metadata>
  <g
     inkscape:label="Layer 1"
     inkscape:groupmode="layer"
     id="layer1"
     transform="translate(-133.3919,-280.21932)">
    <g
       transform="translate(106.33914,-525.03507)"
       style="display:inline"
       id="g4669">
      <g
         id="g4644">
        <path
           sodipodi:nodetypes="ccsc"
           inkscape:connector-curvature="0"
           id="path4639"
           d="m 96.925831,881.563 c -3.735488,21.79036 -38.392563,21.90151 -38.392563,21.90151 0,0 21.203396,-6.56966 19.750703,-22.34174 -1.327052,-14.408 18.64186,0.44023 18.64186,0.44023 z"
           style="fill:#a22430;fill-opacity:1;stroke:none" />
        <rect
           style="fill:#a22430;fill-opacity:1;stroke:none"
           id="rect3328"
           width="89.521233"
           height="77.451447"
           x="27.052763"
           y="805.25439"
           ry="12.913471" />
        <path
           style="fill:#ffffff;fill-opacity:1;stroke:none"
           d="m 75.035672,851.19107 h 18.049506 c 0,0 0,-8.6579 0,0 0,8.65789 -3.668599,22.15834 -20.837642,21.27788 -17.169046,-0.88046 -20.984391,-14.38091 -21.131135,-23.47904 -0.146742,-9.09813 2.647404,-20.32513 22.892066,-19.81044 17.315785,0.44023 18.929973,16.28858 18.929973,16.28858 l -8.364408,-0.14674 c 0,0 -1.907672,-8.6579 -12.03301,-8.21766 -10.125331,0.44023 -11.446027,2.20115 -11.446027,12.91347 0,10.71231 4.695277,14.39422 11.886261,14.67439 11.299291,0.44023 10.272082,-5.86976 10.272082,-5.86976 l -5.282787,0.29349 z"
           id="path4512"
           inkscape:connector-curvature="0"
           sodipodi:nodetypes="ccssssccsssccc" />
        <path
           style="fill:#ffffff;fill-opacity:1;stroke:none"
           d="m 84.147497,815.7524 c 1.37154,-1.22326 7.263833,5.94313 7.410571,8.73126 0.215959,4.10316 0.324743,11.56015 -11.886259,11.44603 -7.850803,-0.0734 -8.217663,-5.42952 -8.217663,-5.42952 0,0 -0.220117,-4.62244 4.035458,-4.62244 4.25557,0 2.858324,3.00825 6.236624,3.00825 5.062667,0 4.273427,-2.05348 4.402315,-4.69581 0.293494,-6.0165 -3.352577,-7.21451 -1.981046,-8.43777 z"
           id="path4516"
           inkscape:connector-curvature="0"
           sodipodi:nodetypes="zsscsssz" />
        <path
           sodipodi:nodetypes="zsscsssz"
           inkscape:connector-curvature="0"
           id="path4611"
           d="m 59.19991,815.7524 c -1.371534,-1.22326 -7.410569,4.62243 -7.410569,8.73126 0,4.10883 -0.324741,11.56015 11.886261,11.44603 7.850803,-0.0734 8.217663,-5.42952 8.217663,-5.42952 0,0 0.220117,-4.62244 -4.035458,-4.62244 -4.255574,0 -2.858321,3.00825 -6.236621,3.00825 -5.062668,0 -4.273428,-2.05348 -4.402318,-4.69581 -0.293491,-6.0165 3.352577,-7.21451 1.981042,-8.43777 z"
           style="fill:#ffffff;fill-opacity:1;stroke:none" />
      </g>
    </g>
  </g>
</svg>
