<?xml version="1.0" encoding="UTF-8" standalone="no"?>
<!-- Created with Inkscape (http://www.inkscape.org/) -->

<svg
   width="43.85733mm"
   height="38.946667mm"
   viewBox="0 0 43.85733 38.946667"
   version="1.1"
   id="svg5"
   sodipodi:docname="gotosocial.svg"
   inkscape:version="1.1.1 (3bf5ae0d25, 2021-09-20, custom)"
   xmlns:inkscape="http://www.inkscape.org/namespaces/inkscape"
   xmlns:sodipodi="http://sodipodi.sourceforge.net/DTD/sodipodi-0.dtd"
   xmlns="http://www.w3.org/2000/svg"
   xmlns:svg="http://www.w3.org/2000/svg">
  <sodipodi:namedview
     id="namedview7"
     pagecolor="#ffffff"
     bordercolor="#666666"
     borderopacity="1.0"
     inkscape:pageshadow="2"
     inkscape:pageopacity="0"
     inkscape:pagecheckerboard="true"
     inkscape:document-units="mm"
     showgrid="false"
     inkscape:zoom="2.9968294"
     inkscape:cx="115.78904"
     inkscape:cy="130.80491"
     inkscape:window-width="1920"
     inkscape:window-height="1043"
     inkscape:window-x="3840"
     inkscape:window-y="0"
     inkscape:window-maximized="1"
     inkscape:current-layer="layer1"
     fit-margin-top="0"
     fit-margin-left="0"
     fit-margin-right="0"
     fit-margin-bottom="0" />
  <defs
     id="defs2" />
  <g
     inkscape:label="Layer 1"
     inkscape:groupmode="layer"
     id="layer1"
     transform="translate(-105.55885,-124.96543)">
    <g
       id="g890">
      <path
         id="path904"
         style="fill:#f5f4f3;stroke-width:3.77952"
         d="m 511.59375,515.30664 c -4.94488,-0.0236 -10.268,1.10325 -18.75781,3.83789 -9.3004,2.99388 -10.1627,2.9935 -19.41211,0.0176 -7.1235,-2.29194 -11.28799,-3.30908 -14.46094,-3.5332 -2.3142,-0.16339 -2.82952,-0.083 -5.36914,0.82421 -10.68442,3.81661 -18.23247,9.9137 -21.49023,17.36133 l -0.79883,1.82422 1.34961,-0.57226 c 3.94461,-1.67403 9.92821,-2.66468 16.06836,-2.66211 6.15537,0.003 10.61854,1.17743 14.84961,3.91211 5.05557,3.26759 8.94929,9.29803 9.52343,14.75 0.24715,2.34682 -0.36257,5.73516 -1.41797,7.89062 -0.9699,1.98078 -3.66704,4.622 -6.01953,5.89453 -4.1334,2.23582 -11.82341,3.55753 -20.82617,3.58399 l -5.8125,0.0156 1,1.28906 c 1.87552,2.42098 7.41788,7.695 10.46289,9.95508 10.81157,8.02458 22.47162,12.44046 36.16016,13.69727 v 0.002 c 0.792,0.0737 3.8167,0.0823 6.7207,0.0195 15.59286,-0.33736 30.75569,-5.83094 45.4336,-16.46094 l 2.87109,-2.08007 0.96875,-2.66211 c 1.14482,-3.14468 2.08444,-6.72611 1.83008,-6.98047 -0.0992,-0.0992 -2.54218,0.33409 -5.42774,0.96289 -9.783,2.13196 -16.00812,2.71391 -22.79687,2.13281 -10.8463,-0.92848 -15.95725,-2.64526 -19.65821,-6.60156 -2.27554,-2.43258 -3.18842,-4.6304 -3.4375,-8.27734 -0.21157,-3.10103 0.38843,-5.74336 2.00391,-8.81446 4.66828,-8.87455 13.69993,-13.13482 25.7793,-12.16015 8.77474,0.70802 14.27313,2.56138 20.99219,7.07422 1.276,0.85704 2.32031,1.49469 2.32031,1.41796 0,-0.7243 -1.94629,-5.99054 -2.96094,-8.01172 -5.2444,-10.4468 -13.766,-16.10267 -26.29102,-17.45117 -1.1353,-0.12223 -2.25535,-0.18987 -3.39648,-0.19531 z m -28.66992,45.56445 c 5.58584,-0.0123 6.98242,0.55198 6.98242,2.82227 0,1.4352 -1.5573,3.18795 -3.25,3.6582 -0.62381,0.1731 -2.37047,0.31546 -3.88281,0.31641 -2.25113,10e-4 -3.00046,-0.13062 -4.13477,-0.73047 -1.72906,-0.91434 -2.75343,-2.66518 -2.32812,-3.98242 0.50592,-1.56681 2.12036,-2.07265 6.61328,-2.08399 z m 0.27148,10.90821 0.84375,0.78906 c 2.20725,2.06302 5.04112,2.57 8.375,1.49805 2.58716,-0.83192 3.66168,-0.61319 4.02149,0.82031 0.29019,1.15616 -0.64002,2.34871 -2.60938,3.34375 -1.32567,0.66981 -2.02538,0.79857 -4.30273,0.79101 -2.26061,-0.008 -3.03128,-0.15431 -4.56055,-0.86328 l -1.83984,-0.85156 -1.76367,0.80664 c -3.59339,1.64512 -8.43306,1.18526 -10.73438,-1.01953 -1.10974,-1.06333 -1.20423,-2.12194 -0.27148,-3.05469 0.73322,-0.73311 0.99495,-0.71886 4.32226,0.23438 1.70154,0.48718 2.19026,0.50768 3.76953,0.15429 1.12328,-0.25137 2.37197,-0.8333 3.28125,-1.52734 z"
         transform="scale(0.26458333)" />
      <path
         style="fill:#d2cfd4;stroke-width:0.999998"
         d="m 125.94764,163.85426 c 0.0611,-0.0245 0.13414,-0.0215 0.16228,0.007 0.0281,0.0281 -0.0219,0.0481 -0.11113,0.0445 -0.0986,-0.004 -0.11869,-0.0241 -0.0511,-0.0511 z m 3.38667,0 c 0.0611,-0.0245 0.13414,-0.0215 0.16227,0.007 0.0281,0.0281 -0.0219,0.0481 -0.11112,0.0445 -0.0986,-0.004 -0.11869,-0.0241 -0.0512,-0.0511 z m -4.11097,-2.9543 c -2.19175,-0.26552 -4.09208,-0.83404 -6.07549,-1.81758 -1.73236,-0.85906 -2.70276,-1.55157 -4.02526,-2.87256 -1.43102,-1.4294 -2.30357,-2.75177 -3.04155,-4.60953 -0.22479,-0.56588 -0.59552,-1.85263 -0.59552,-2.06696 0,-0.0525 0.18349,-0.0415 0.48683,0.0291 1.36255,0.31708 3.08268,0.64415 3.63192,0.69057 0.33962,0.0287 0.60118,0.0786 0.58125,0.11082 -0.0603,0.0975 1.24541,1.54113 1.94873,2.15452 2.67847,2.33602 5.80533,3.78482 9.36141,4.3375 1.52877,0.23761 4.07691,0.20087 5.66452,-0.0816 3.30368,-0.58791 6.50731,-1.99231 9.36891,-4.10712 0.39795,-0.2941 0.74298,-0.51528 0.76674,-0.49153 0.0584,0.0584 -0.65013,1.3799 -1.11192,2.07408 -0.84249,1.26647 -2.15035,2.59267 -3.56273,3.61269 -0.94815,0.68475 -3.16976,1.792 -4.39605,2.19098 -1.24557,0.40525 -2.58624,0.6977 -3.90631,0.85212 -1.33349,0.15598 -3.78463,0.15337 -5.09548,-0.005 z m -11.43066,-0.0942 c 0.0815,-0.0213 0.21484,-0.0213 0.29634,0 0.0815,0.0213 0.0148,0.0387 -0.14817,0.0387 -0.16298,0 -0.22966,-0.0174 -0.14817,-0.0387 z m -6.0433,-0.68247 c -0.10531,-0.13428 -0.10232,-0.13728 0.032,-0.032 0.0815,0.0639 0.14817,0.13058 0.14817,0.14816 0,0.0697 -0.0695,0.0248 -0.18014,-0.1162 z m 36.62109,-0.46566 -0.16129,-0.1905 0.1905,0.16129 c 0.17902,0.15157 0.22904,0.21971 0.16129,0.21971 -0.0161,0 -0.10179,-0.0857 -0.1905,-0.1905 z m -33.56229,0.0739 c 0,-0.0176 0.0667,-0.0842 0.14817,-0.14816 0.13429,-0.10532 0.13728,-0.10232 0.032,0.032 -0.11061,0.14104 -0.18014,0.18589 -0.18014,0.1162 z m 37.43603,-3.01603 c 0,-0.11642 0.0192,-0.16404 0.0427,-0.10583 0.0235,0.0582 0.0235,0.15346 0,0.21166 -0.0235,0.0582 -0.0427,0.0106 -0.0427,-0.10583 z m 0.003,-0.97367 c 0.002,-0.1397 0.0207,-0.1866 0.0422,-0.10422 0.0215,0.0824 0.0201,0.19668 -0.003,0.254 -0.0232,0.0573 -0.0408,-0.0101 -0.039,-0.14978 z m -41.93731,-0.27516 c -0.10531,-0.13429 -0.10232,-0.13728 0.032,-0.032 0.0815,0.0639 0.14816,0.13059 0.14816,0.14817 0,0.0697 -0.0695,0.0248 -0.18013,-0.1162 z m 19.38359,-2.28034 c 0.0611,-0.0245 0.13414,-0.0215 0.16228,0.007 0.0281,0.0281 -0.0219,0.0482 -0.11113,0.0445 -0.0986,-0.004 -0.11869,-0.0241 -0.0511,-0.0512 z m 0.67733,0 c 0.0611,-0.0245 0.13415,-0.0215 0.16228,0.007 0.0281,0.0281 -0.0219,0.0482 -0.11112,0.0445 -0.0986,-0.004 -0.1187,-0.0241 -0.0512,-0.0512 z m 2.794,0 c 0.0611,-0.0245 0.13415,-0.0215 0.16228,0.007 0.0281,0.0281 -0.0219,0.0482 -0.11112,0.0445 -0.0986,-0.004 -0.1187,-0.0241 -0.0512,-0.0512 z m 0.67734,0 c 0.0611,-0.0245 0.13414,-0.0215 0.16227,0.007 0.0281,0.0281 -0.0219,0.0482 -0.11112,0.0445 -0.0986,-0.004 -0.11869,-0.0241 -0.0512,-0.0512 z m -5.53328,-0.7098 c -0.0307,-0.0497 -0.0377,-0.10845 -0.0155,-0.13065 0.0222,-0.0222 0.0629,0.0184 0.0905,0.0903 0.0573,0.14919 0.008,0.17544 -0.075,0.0403 z m 7.00185,-0.24836 c 0,-0.11642 0.0192,-0.16404 0.0427,-0.10584 0.0235,0.0582 0.0235,0.15346 0,0.21167 -0.0235,0.0582 -0.0427,0.0106 -0.0427,-0.10583 z m -6.59459,-0.48201 c 0.0824,-0.0215 0.19668,-0.02 0.254,0.003 0.0573,0.0232 -0.0101,0.0408 -0.14977,0.039 -0.1397,-0.002 -0.18661,-0.0207 -0.10423,-0.0422 z m 6.01134,0 c 0.0824,-0.0215 0.19667,-0.02 0.254,0.003 0.0573,0.0232 -0.0101,0.0408 -0.14978,0.039 -0.1397,-0.002 -0.1866,-0.0207 -0.10422,-0.0422 z m -2.74292,-0.25883 c -0.10531,-0.13428 -0.10231,-0.13728 0.032,-0.032 0.14104,0.1106 0.18589,0.18013 0.1162,0.18013 -0.0176,0 -0.0842,-0.0667 -0.14817,-0.14817 z m -10.63603,-1.0994 c 0.22119,-0.0174 0.58314,-0.0174 0.80434,0 0.22119,0.0174 0.0402,0.0317 -0.40217,0.0317 -0.44238,0 -0.62336,-0.0143 -0.40217,-0.0317 z m 20.15322,-8e-5 c 0.2226,-0.0175 0.5655,-0.0173 0.762,5.1e-4 0.19651,0.0177 0.0144,0.0321 -0.40472,0.0318 -0.4191,-2.5e-4 -0.57987,-0.0148 -0.35728,-0.0323 z m -18.07359,-0.0802 c 0.0611,-0.0245 0.13414,-0.0215 0.16228,0.007 0.0281,0.0281 -0.0219,0.0481 -0.11113,0.0445 -0.0986,-0.004 -0.11869,-0.0241 -0.0512,-0.0512 z m 16.67933,0 c 0.0611,-0.0245 0.13414,-0.0215 0.16228,0.007 0.0281,0.0281 -0.0219,0.0481 -0.11113,0.0445 -0.0986,-0.004 -0.11869,-0.0241 -0.0512,-0.0512 z m 3.38137,0.002 c 0.0582,-0.0235 0.15346,-0.0235 0.21167,0 0.0582,0.0235 0.0106,0.0427 -0.10583,0.0427 -0.11642,0 -0.16404,-0.0192 -0.10584,-0.0427 z m -19.2987,-0.0864 c 0.0611,-0.0245 0.13414,-0.0214 0.16228,0.007 0.0281,0.0281 -0.0219,0.0481 -0.11113,0.0445 -0.0986,-0.004 -0.11869,-0.0241 -0.0512,-0.0512 z m 15.15533,0 c 0.0611,-0.0245 0.13414,-0.0214 0.16228,0.007 0.0281,0.0281 -0.0219,0.0481 -0.11113,0.0445 -0.0986,-0.004 -0.11869,-0.0241 -0.0512,-0.0512 z m -14.56267,-0.0847 c 0.0611,-0.0245 0.13415,-0.0215 0.16228,0.007 0.0281,0.0281 -0.0219,0.0481 -0.11112,0.0445 -0.0986,-0.004 -0.1187,-0.0241 -0.0512,-0.0512 z m 19.98134,0 c 0.0611,-0.0245 0.13414,-0.0215 0.16227,0.007 0.0281,0.0281 -0.0219,0.0481 -0.11112,0.0445 -0.0986,-0.004 -0.1187,-0.0241 -0.0512,-0.0512 z m 3.23989,-0.16089 c 0.004,-0.0986 0.0241,-0.11869 0.0512,-0.0512 0.0245,0.0611 0.0214,0.13414 -0.007,0.16228 -0.0281,0.0281 -0.0481,-0.0219 -0.0445,-0.11113 z m 0.0474,-0.41627 c -0.0268,-0.0699 -0.0118,-0.127 0.0333,-0.127 0.0451,0 0.082,0.0572 0.082,0.127 0,0.0699 -0.015,0.127 -0.0333,0.127 -0.0183,0 -0.0552,-0.0571 -0.082,-0.127 z M 125.97009,149.131 c 0.004,-0.0986 0.0241,-0.1187 0.0511,-0.0512 0.0245,0.0611 0.0215,0.13414 -0.007,0.16227 -0.0281,0.0281 -0.0481,-0.0219 -0.0445,-0.11112 z m 5.82451,-0.0988 c -0.10531,-0.13429 -0.10232,-0.13728 0.032,-0.032 0.0815,0.0639 0.14817,0.13059 0.14817,0.14817 0,0.0697 -0.0695,0.0248 -0.18014,-0.1162 z m -8.03253,0.0315 c 0,-0.0176 0.0667,-0.0842 0.14817,-0.14816 0.13429,-0.10532 0.13728,-0.10232 0.032,0.032 -0.11061,0.14104 -0.18014,0.18589 -0.18014,0.1162 z m 2.286,-0.254 c 0,-0.0176 0.0667,-0.0842 0.14817,-0.14816 0.13428,-0.10532 0.13728,-0.10232 0.032,0.032 -0.11061,0.14104 -0.18014,0.18589 -0.18014,0.1162 z m 3.37587,-0.1162 c -0.10532,-0.13428 -0.10232,-0.13728 0.032,-0.032 0.14104,0.1106 0.18589,0.18013 0.1162,0.18013 -0.0176,0 -0.0843,-0.0667 -0.14816,-0.14817 z m -5.0692,-0.22246 c 0,-0.0176 0.0667,-0.0843 0.14817,-0.14817 0.13428,-0.10531 0.13728,-0.10232 0.032,0.032 -0.1106,0.14103 -0.18013,0.18588 -0.18013,0.1162 z m 3.32316,-0.11107 c 0.0815,-0.0213 0.21485,-0.0213 0.29634,0 0.0815,0.0213 0.0148,0.0387 -0.14817,0.0387 -0.16298,0 -0.22966,-0.0174 -0.14817,-0.0387 z m -2.93672,-0.47445 c 0.0318,-0.0835 0.0791,-0.13049 0.10521,-0.10442 0.0261,0.0261 5e-5,0.0944 -0.0578,0.15181 -0.0836,0.083 -0.0934,0.0733 -0.0474,-0.0474 z m 5.72293,-1.32985 c 0,-0.11642 0.0192,-0.16404 0.0427,-0.10583 0.0235,0.0582 0.0235,0.15346 0,0.21166 -0.0235,0.0582 -0.0427,0.0106 -0.0427,-0.10583 z m -5.32027,-0.42333 c 0,-0.30269 0.0154,-0.42651 0.0341,-0.27517 0.0188,0.15134 0.0188,0.39899 0,0.55033 -0.0188,0.15135 -0.0341,0.0275 -0.0341,-0.27516 z m -17.44306,-0.0847 c 0,-0.25612 0.0159,-0.36089 0.0353,-0.23283 0.0194,0.12806 0.0194,0.33761 0,0.46566 -0.0194,0.12806 -0.0353,0.0233 -0.0353,-0.23283 z m 39.87568,-0.33867 c 0,-0.20955 0.0165,-0.29527 0.0367,-0.1905 0.0202,0.10478 0.0202,0.27623 0,0.381 -0.0202,0.10478 -0.0367,0.019 -0.0367,-0.1905 z m -17.11235,0 c 0,-0.11641 0.0192,-0.16404 0.0427,-0.10583 0.0235,0.0582 0.0235,0.15346 0,0.21167 -0.0235,0.0582 -0.0427,0.0106 -0.0427,-0.10584 z m 17.01799,-1.35466 c 0,-0.11642 0.0192,-0.16404 0.0427,-0.10584 0.0235,0.0582 0.0235,0.15346 0,0.21167 -0.0235,0.0582 -0.0427,0.0106 -0.0427,-0.10583 z m -0.0914,-0.89606 c 0.004,-0.0986 0.0241,-0.11869 0.0512,-0.0512 0.0244,0.0611 0.0214,0.13414 -0.007,0.16228 -0.0281,0.0281 -0.0481,-0.0219 -0.0445,-0.11113 z m -23.38548,-0.26811 c -0.10531,-0.13429 -0.10232,-0.13728 0.032,-0.032 0.0815,0.0639 0.14817,0.13059 0.14817,0.14817 0,0.0697 -0.0695,0.0248 -0.18014,-0.1162 z m 7.46147,0.1162 c 0,-0.0176 0.0667,-0.0843 0.14816,-0.14817 0.13429,-0.10531 0.13729,-0.10232 0.032,0.032 -0.1106,0.14103 -0.18013,0.18588 -0.18013,0.1162 z m -19.89667,-0.12812 c 0,-0.18288 0.46702,-1.47407 0.75726,-2.09364 1.4443,-3.0831 4.36193,-4.80274 8.08033,-4.76251 0.84679,0.009 0.94471,0.0222 0.56041,0.0749 -0.51096,0.0699 -1.39233,0.37383 -2.34995,0.81023 -1.39867,0.63739 -2.84139,1.78334 -3.62825,2.88191 -0.4307,0.60132 -0.83087,1.42959 -0.7522,1.55689 0.0299,0.0483 0.0229,0.0794 -0.0155,0.069 -0.11448,-0.031 -1.03205,0.46998 -1.86896,1.02047 -0.43074,0.28332 -0.78317,0.4826 -0.78317,0.44283 z m 31.90853,-0.32675 c -0.10531,-0.13428 -0.10232,-0.13728 0.032,-0.032 0.0815,0.0639 0.14817,0.13058 0.14817,0.14816 0,0.0697 -0.0695,0.0248 -0.18014,-0.1162 z m 0.44082,0.0141 c 0.004,-0.0986 0.0241,-0.11869 0.0511,-0.0512 0.0245,0.0611 0.0215,0.13415 -0.007,0.16228 -0.0281,0.0281 -0.0481,-0.0219 -0.0445,-0.11113 z m -12.11402,0.0229 c 0,-0.0146 0.12383,-0.1384 0.27517,-0.27517 l 0.27517,-0.24867 -0.24868,0.27517 c -0.23179,0.25649 -0.30166,0.31408 -0.30166,0.24867 z m 15.50069,-0.10756 c 0.004,-0.0986 0.0241,-0.1187 0.0512,-0.0512 0.0245,0.0611 0.0215,0.13414 -0.007,0.16227 -0.0281,0.0281 -0.0481,-0.0219 -0.0445,-0.11112 z m -23.76373,-0.14111 -0.16129,-0.1905 0.1905,0.16129 c 0.17902,0.15157 0.22905,0.21971 0.16129,0.21971 -0.0161,0 -0.10179,-0.0857 -0.1905,-0.1905 z m -0.55309,-0.46567 c -0.10531,-0.13429 -0.10232,-0.13728 0.032,-0.032 0.0815,0.0639 0.14817,0.13059 0.14817,0.14817 0,0.0697 -0.0695,0.0248 -0.18014,-0.1162 z m 9.49347,0.1162 c 0,-0.0176 0.0667,-0.0843 0.14816,-0.14817 0.13429,-0.10531 0.13729,-0.10232 0.032,0.032 -0.1106,0.14103 -0.18013,0.18588 -0.18013,0.1162 z m 9.77401,-0.18437 c -0.15782,-0.12644 -0.15678,-0.128 0.0262,-0.0394 0.10478,0.0508 0.1905,0.11002 0.1905,0.13167 0,0.0648 -0.0439,0.0461 -0.21665,-0.0923 z m 0.91106,-1.18252 c -0.10131,-0.20853 -0.16642,-0.37914 -0.14469,-0.37914 0.0573,0 0.39946,0.68771 0.36116,0.72601 -0.0178,0.0178 -0.11516,-0.13834 -0.21647,-0.34687 z m -27.04161,0.15569 c 0.0611,-0.0245 0.13414,-0.0215 0.16228,0.007 0.0281,0.0281 -0.0219,0.0481 -0.11113,0.0445 -0.0986,-0.004 -0.11869,-0.0241 -0.0511,-0.0512 z m 0.508,-0.0847 c 0.0611,-0.0245 0.13414,-0.0214 0.16228,0.007 0.0281,0.0281 -0.0219,0.0481 -0.11113,0.0445 -0.0986,-0.004 -0.11869,-0.0241 -0.0512,-0.0512 z m 22.26733,0 c 0.0611,-0.0245 0.13414,-0.0214 0.16228,0.007 0.0281,0.0281 -0.0219,0.0481 -0.11113,0.0445 -0.0986,-0.004 -0.11869,-0.0241 -0.0512,-0.0512 z m -21.59,-0.0847 c 0.0611,-0.0245 0.13414,-0.0215 0.16228,0.007 0.0281,0.0281 -0.0219,0.0481 -0.11113,0.0445 -0.0986,-0.004 -0.11869,-0.0241 -0.0512,-0.0511 z m 2.54,0 c 0.0611,-0.0245 0.13414,-0.0215 0.16228,0.007 0.0281,0.0281 -0.0219,0.0481 -0.11113,0.0445 -0.0986,-0.004 -0.11869,-0.0241 -0.0511,-0.0511 z m 15.83267,0 c 0.0611,-0.0245 0.13414,-0.0215 0.16227,0.007 0.0281,0.0281 -0.0219,0.0481 -0.11112,0.0445 -0.0986,-0.004 -0.1187,-0.0241 -0.0511,-0.0511 z m 2.45004,0.002 c 0.0582,-0.0235 0.15346,-0.0235 0.21166,0 0.0582,0.0235 0.0106,0.0427 -0.10583,0.0427 -0.11642,0 -0.16404,-0.0192 -0.10583,-0.0427 z m -19.558,-0.0883 c 0.10477,-0.0202 0.27622,-0.0202 0.381,0 0.10477,0.0202 0.019,0.0367 -0.1905,0.0367 -0.20955,0 -0.29528,-0.0165 -0.1905,-0.0367 z m 18.0775,-0.001 c 0.12869,-0.0195 0.31919,-0.0189 0.42333,0.001 0.10413,0.0201 -0.001,0.036 -0.234,0.0354 -0.23283,-6.8e-4 -0.31803,-0.0171 -0.18933,-0.0365 z m 5.51529,-1.4844 -0.16129,-0.1905 0.1905,0.16129 c 0.17902,0.15157 0.22904,0.21971 0.16129,0.21971 -0.0161,0 -0.10179,-0.0857 -0.1905,-0.1905 z m -0.58861,-0.67734 -0.33468,-0.35983 0.35983,0.33468 c 0.33464,0.31125 0.39874,0.38499 0.33468,0.38499 -0.0138,0 -0.17575,-0.16193 -0.35983,-0.35984 z m -0.59673,-0.508 -0.16129,-0.1905 0.1905,0.16129 c 0.17903,0.15157 0.22905,0.21971 0.16129,0.21971 -0.0161,0 -0.10179,-0.0857 -0.1905,-0.1905 z m -13.30579,-0.20653 c 0.0815,-0.0213 0.21485,-0.0213 0.29634,0 0.0815,0.0213 0.0148,0.0387 -0.14817,0.0387 -0.16298,0 -0.22966,-0.0174 -0.14817,-0.0387 z m -0.6297,-0.0841 c 0.0611,-0.0245 0.13414,-0.0215 0.16227,0.007 0.0281,0.0281 -0.0219,0.0481 -0.11112,0.0445 -0.0986,-0.004 -0.11869,-0.0241 -0.0511,-0.0512 z m 2.11666,-0.16933 c 0.0611,-0.0245 0.13415,-0.0215 0.16228,0.007 0.0281,0.0281 -0.0219,0.0481 -0.11112,0.0445 -0.0986,-0.004 -0.1187,-0.0241 -0.0512,-0.0512 z m 10.89056,-0.1585 c -0.15782,-0.12644 -0.15678,-0.128 0.0262,-0.0394 0.10478,0.0508 0.1905,0.11002 0.1905,0.13167 0,0.0648 -0.0439,0.0461 -0.21665,-0.0923 z m -16.98656,-0.8575 c 0.0611,-0.0245 0.13415,-0.0215 0.16228,0.007 0.0281,0.0281 -0.0219,0.0481 -0.11112,0.0445 -0.0986,-0.004 -0.1187,-0.0241 -0.0512,-0.0511 z m 9.398,0 c 0.0611,-0.0245 0.13415,-0.0215 0.16228,0.007 0.0281,0.0281 -0.0219,0.0481 -0.11112,0.0445 -0.0986,-0.004 -0.1187,-0.0241 -0.0512,-0.0511 z m -10.16,-0.16933 c 0.0611,-0.0245 0.13415,-0.0215 0.16228,0.007 0.0281,0.0281 -0.0219,0.0481 -0.11112,0.0445 -0.0986,-0.004 -0.1187,-0.0241 -0.0512,-0.0512 z m 10.922,0 c 0.0611,-0.0245 0.13415,-0.0215 0.16228,0.007 0.0281,0.0281 -0.0219,0.0481 -0.11112,0.0445 -0.0986,-0.004 -0.1187,-0.0241 -0.0512,-0.0512 z m 4.064,0 c 0.0611,-0.0245 0.13415,-0.0215 0.16228,0.007 0.0281,0.0281 -0.0219,0.0481 -0.11112,0.0445 -0.0986,-0.004 -0.1187,-0.0241 -0.0512,-0.0512 z m -15.494,-0.0847 c 0.0611,-0.0245 0.13415,-0.0214 0.16228,0.007 0.0281,0.0281 -0.0219,0.0481 -0.11112,0.0445 -0.0986,-0.004 -0.1187,-0.0241 -0.0512,-0.0512 z m 11.938,0 c 0.0611,-0.0245 0.13415,-0.0214 0.16228,0.007 0.0281,0.0281 -0.0219,0.0481 -0.11112,0.0445 -0.0986,-0.004 -0.1187,-0.0241 -0.0512,-0.0512 z m 3.04271,0.002 c 0.0582,-0.0235 0.15346,-0.0235 0.21167,0 0.0582,0.0235 0.0106,0.0427 -0.10584,0.0427 -0.11641,0 -0.16404,-0.0192 -0.10583,-0.0427 z m -2.36968,-0.0885 c 0.10532,-0.0203 0.25772,-0.0195 0.33867,0.002 0.081,0.0212 -0.005,0.0378 -0.19149,0.0368 -0.18627,-9.4e-4 -0.2525,-0.0183 -0.14718,-0.0385 z m 1.56535,0.002 c 0.0815,-0.0213 0.21484,-0.0213 0.29633,0 0.0815,0.0213 0.0148,0.0387 -0.14817,0.0387 -0.16298,0 -0.22965,-0.0174 -0.14816,-0.0387 z m -23.60083,-2.39696 c 0.0843,-0.0931 0.17229,-0.16934 0.19557,-0.16934 0.0233,0 -0.0266,0.0762 -0.11091,0.16934 -0.0843,0.0931 -0.17229,0.16933 -0.19558,0.16933 -0.0233,0 0.0266,-0.0762 0.11092,-0.16933 z m 1.18533,-1.18534 c 0.0843,-0.0931 0.17229,-0.16933 0.19558,-0.16933 0.0233,0 -0.0266,0.0762 -0.11091,0.16933 -0.0843,0.0931 -0.1723,0.16934 -0.19558,0.16934 -0.0233,0 0.0266,-0.0762 0.11091,-0.16934 z m 30.71444,-0.56667 c 0.0824,-0.0215 0.19668,-0.02 0.254,0.003 0.0573,0.0232 -0.0101,0.0408 -0.14978,0.039 -0.1397,-0.002 -0.1866,-0.0207 -0.10422,-0.0422 z m -26.53424,-2.54483 c -0.10532,-0.13428 -0.10232,-0.13728 0.032,-0.032 0.14103,0.1106 0.18588,0.18013 0.1162,0.18013 -0.0176,0 -0.0843,-0.0667 -0.14817,-0.14817 z m -0.90717,-1.62983 c 0,-0.11642 0.0192,-0.16404 0.0427,-0.10583 0.0235,0.0582 0.0235,0.15346 0,0.21166 -0.0235,0.0582 -0.0427,0.0106 -0.0427,-0.10583 z m 13.51743,-0.73517 c 0.0611,-0.0245 0.13414,-0.0215 0.16227,0.007 0.0281,0.0281 -0.0219,0.0481 -0.11112,0.0445 -0.0986,-0.004 -0.11869,-0.0241 -0.0511,-0.0511 z m -0.97896,-0.0852 c 0.0815,-0.0213 0.21484,-0.0213 0.29633,0 0.0815,0.0213 0.0148,0.0387 -0.14817,0.0387 -0.16298,0 -0.22965,-0.0174 -0.14816,-0.0387 z m -12.08617,-0.19564 c 0.0843,-0.0931 0.1723,-0.16933 0.19558,-0.16933 0.0233,0 -0.0266,0.0762 -0.11091,0.16933 -0.0843,0.0931 -0.1723,0.16933 -0.19558,0.16933 -0.0233,0 0.0266,-0.0762 0.11091,-0.16933 z m 1.46579,-0.6505 c 0.0611,-0.0245 0.13415,-0.0215 0.16228,0.007 0.0281,0.0281 -0.0219,0.0481 -0.11112,0.0445 -0.0986,-0.004 -0.1187,-0.0241 -0.0512,-0.0511 z m 0.92605,0.002 c 0.0582,-0.0235 0.15345,-0.0235 0.21166,0 0.0582,0.0235 0.0106,0.0427 -0.10583,0.0427 -0.11642,0 -0.16404,-0.0192 -0.10583,-0.0427 z"
         id="path902" />
      <path
         style="fill:#dd8857;stroke-width:0.999998"
         d="m 126.28102,163.85235 c 0.10477,-0.0202 0.27622,-0.0202 0.381,0 0.10477,0.0202 0.0191,0.0367 -0.1905,0.0367 -0.20955,0 -0.29528,-0.0165 -0.1905,-0.0367 z m 2.54098,-1.7e-4 c 0.10532,-0.0203 0.25772,-0.0195 0.33867,0.002 0.081,0.0212 -0.005,0.0378 -0.19149,0.0368 -0.18627,-9.4e-4 -0.2525,-0.0183 -0.14718,-0.0385 z m -3.55698,-0.0808 c 0.0582,-0.0235 0.15345,-0.0235 0.21166,0 0.0582,0.0235 0.0106,0.0427 -0.10583,0.0427 -0.11642,0 -0.16404,-0.0192 -0.10583,-0.0427 z m 4.65666,0 c 0.0582,-0.0235 0.15346,-0.0235 0.21167,0 0.0582,0.0235 0.0106,0.0427 -0.10584,0.0427 -0.11641,0 -0.16404,-0.0192 -0.10583,-0.0427 z m -5.32871,-0.0864 c 0.0611,-0.0245 0.13415,-0.0215 0.16228,0.007 0.0281,0.0281 -0.0219,0.0481 -0.11112,0.0445 -0.0986,-0.004 -0.1187,-0.0241 -0.0512,-0.0512 z m 6.096,0 c 0.0611,-0.0245 0.13415,-0.0215 0.16228,0.007 0.0281,0.0281 -0.0219,0.0481 -0.11112,0.0445 -0.0986,-0.004 -0.1187,-0.0241 -0.0512,-0.0512 z m 0.59267,-0.0847 c 0.0611,-0.0245 0.13414,-0.0214 0.16228,0.007 0.0281,0.0281 -0.0219,0.0481 -0.11113,0.0445 -0.0986,-0.004 -0.11869,-0.0241 -0.0511,-0.0512 z m -3.64444,-2.54352 c 0.15217,-0.0188 0.38077,-0.0185 0.508,8.6e-4 0.12722,0.0193 0.003,0.0347 -0.27669,0.0343 -0.2794,-5.1e-4 -0.38349,-0.0163 -0.23131,-0.0351 z m -1.77952,-0.0794 c 0.0582,-0.0235 0.15346,-0.0235 0.21167,0 0.0582,0.0235 0.0106,0.0427 -0.10583,0.0427 -0.11642,0 -0.16405,-0.0192 -0.10584,-0.0427 z m 3.72533,0 c 0.0582,-0.0235 0.15346,-0.0235 0.21167,0 0.0582,0.0235 0.0106,0.0427 -0.10583,0.0427 -0.11642,0 -0.16404,-0.0192 -0.10584,-0.0427 z m -4.48204,-0.0864 c 0.0611,-0.0245 0.13415,-0.0214 0.16228,0.007 0.0281,0.0281 -0.0219,0.0481 -0.11112,0.0445 -0.0986,-0.004 -0.1187,-0.0241 -0.0512,-0.0512 z m 5.334,0 c 0.0611,-0.0245 0.13415,-0.0214 0.16228,0.007 0.0281,0.0281 -0.0219,0.0481 -0.11112,0.0445 -0.0986,-0.004 -0.1187,-0.0241 -0.0512,-0.0512 z m 10.32404,-0.34058 c 0.10478,-0.0202 0.27623,-0.0202 0.381,0 0.10478,0.0202 0.0191,0.0367 -0.1905,0.0367 -0.20955,0 -0.29527,-0.0165 -0.1905,-0.0367 z m 6.4135,-0.87159 c 0.0843,-0.0931 0.1723,-0.16933 0.19558,-0.16933 0.0233,0 -0.0266,0.0762 -0.11091,0.16933 -0.0843,0.0931 -0.17229,0.16934 -0.19558,0.16934 -0.0233,0 0.0266,-0.0762 0.11091,-0.16934 z m -4.064,-0.254 c 0.18189,-0.18626 0.34975,-0.33866 0.37304,-0.33866 0.0233,0 -0.10649,0.1524 -0.28837,0.33866 -0.18188,0.18627 -0.34975,0.33867 -0.37303,0.33867 -0.0233,0 0.10648,-0.1524 0.28836,-0.33867 z m -31.92918,-0.0615 c 0.14077,-0.16638 0.30619,-0.19144 0.30619,-0.0464 0,0.0283 -0.0255,0.026 -0.0566,-0.005 -0.0311,-0.0311 -0.13592,0.0101 -0.23284,0.0917 -0.17574,0.14797 -0.17578,0.14786 -0.0167,-0.0402 z m 32.54161,-0.62634 c 0.0574,-0.0579 0.12575,-0.0839 0.15181,-0.0578 0.0261,0.0261 -0.0209,0.0734 -0.10442,0.1052 -0.12066,0.046 -0.13039,0.0362 -0.0474,-0.0474 z m -36.70939,-0.49749 c 0,-0.11642 0.0192,-0.16404 0.0427,-0.10583 0.0235,0.0582 0.0235,0.15346 0,0.21166 -0.0235,0.0582 -0.0427,0.0106 -0.0427,-0.10583 z m 41.14131,-0.89605 c 0.004,-0.0986 0.0241,-0.1187 0.0512,-0.0512 0.0244,0.0611 0.0214,0.13415 -0.007,0.16228 -0.0281,0.0281 -0.0481,-0.0219 -0.0445,-0.11112 z m -41.14131,-0.11995 c 0,-0.11642 0.0192,-0.16404 0.0427,-0.10583 0.0235,0.0582 0.0235,0.15346 0,0.21166 -0.0235,0.0582 -0.0427,0.0106 -0.0427,-0.10583 z m 32.49863,-0.032 c 0,-0.0176 0.0667,-0.0842 0.14817,-0.14816 0.13428,-0.10532 0.13728,-0.10232 0.032,0.032 -0.1106,0.14104 -0.18013,0.18589 -0.18013,0.1162 z m -24.47156,-0.96286 -0.46277,-0.48684 0.48683,0.46278 c 0.45229,0.42993 0.52562,0.51089 0.46278,0.51089 -0.0132,0 -0.23231,-0.21907 -0.48684,-0.48683 z m 25.48756,0.0212 c 0.15797,-0.16298 0.30627,-0.29633 0.32955,-0.29633 0.0233,0 -0.0869,0.13335 -0.24488,0.29633 -0.15797,0.16299 -0.30627,0.29634 -0.32955,0.29634 -0.0233,0 0.0869,-0.13335 0.24488,-0.29634 z m 7.72602,0 c 9.4e-4,-0.18626 0.0183,-0.25249 0.0385,-0.14718 0.0203,0.10532 0.0195,0.25772 -0.002,0.33867 -0.0212,0.081 -0.0378,-0.005 -0.0368,-0.19149 z m -7.04869,-0.75163 c 0,-0.0176 0.0667,-0.0843 0.14817,-0.14817 0.13429,-0.10531 0.13728,-0.10232 0.032,0.032 -0.11061,0.14103 -0.18014,0.18588 -0.18014,0.1162 z m -27.01946,-0.20087 c -0.10532,-0.13428 -0.10232,-0.13728 0.032,-0.032 0.0815,0.0639 0.14816,0.13058 0.14816,0.14816 0,0.0697 -0.0695,0.0248 -0.18013,-0.1162 z m 33.97195,-0.29633 c -0.008,-0.11684 -0.0875,-0.14817 -0.37728,-0.14817 -0.55239,0 -1.60226,-0.29659 -2.24031,-0.63289 -0.73079,-0.38518 -1.30043,-0.87773 -1.79663,-1.55346 l -0.39675,-0.54031 0.23655,-0.60922 c 0.5585,-1.43831 0.83804,-3.0741 0.83877,-4.90825 0.002,-6.18496 -3.21994,-10.03477 -8.5987,-10.27294 -1.70507,-0.0755 -2.78025,0.12224 -5.6248,1.03447 -1.62566,0.52133 -2.37546,0.63435 -3.13589,0.47268 -0.25435,-0.0541 -1.11457,-0.30665 -1.91162,-0.56127 -1.72095,-0.54978 -2.53349,-0.75606 -3.50382,-0.8895 -0.63749,-0.0877 -0.79363,-0.14688 -1.36726,-0.51851 -0.7413,-0.48026 -1.62674,-1.3602 -1.80997,-1.79874 -0.35804,-0.85691 0.004,-1.70454 1.02584,-2.4034 0.37338,-0.25531 1.50703,-0.80259 2.14618,-1.03609 l 0.54513,-0.19915 -0.6631,-0.112 c -1.42036,-0.23991 -2.68071,-0.86141 -3.55982,-1.75542 -0.2794,-0.28413 -0.58386,-0.67429 -0.67658,-0.86702 -0.0927,-0.19273 -0.20701,-0.32919 -0.254,-0.30326 -0.047,0.0259 0.0654,-0.11108 0.24979,-0.30449 0.4604,-0.48297 1.07996,-0.71126 1.95079,-0.71882 1.04712,-0.009 2.08577,0.3163 3.11222,0.97498 0.22434,0.14395 0.41979,0.2473 0.43434,0.22967 0.0146,-0.0176 0.15598,-0.27868 0.31428,-0.58011 0.37469,-0.71345 1.08485,-1.43055 1.72716,-1.74402 0.40663,-0.19845 0.61781,-0.2473 1.05833,-0.2448 1.01363,0.006 1.6591,0.57881 1.87223,1.66216 l 0.0971,0.49371 0.51815,7e-5 c 0.28499,4e-5 0.93725,0.0389 1.44949,0.0864 2.81509,0.26087 4.57395,0.85266 8.16241,2.74632 2.98159,1.57341 4.02139,1.94964 6.07194,2.19704 0.67987,0.082 1.16577,0.18926 1.43933,0.31767 0.818,0.38396 1.38665,1.21835 1.38665,2.03467 0,0.31336 -0.0169,0.33229 -0.48683,0.54401 -1.54479,0.69602 -2.26754,0.83424 -4.03043,0.77076 l -1.36707,-0.0492 0.33866,0.28994 c 0.84067,0.7197 2.17515,1.23058 4.02167,1.53961 0.37338,0.0625 0.38721,0.0765 0.69169,0.69876 1.01624,2.07699 1.59267,5.36368 1.59401,9.08869 l 3.4e-4,0.83368 0.49591,0.5412 c 0.9344,1.01974 1.40445,2.40272 1.22537,3.60531 -0.1207,0.81059 -0.37178,1.44936 -0.78139,1.98793 -0.1823,0.23969 -0.34964,0.50639 -0.37185,0.59266 -0.036,0.13984 -0.0415,0.14079 -0.0502,0.009 z m -42.59047,-1.12889 c 0.004,-0.0986 0.0241,-0.11869 0.0512,-0.0512 0.0244,0.0611 0.0215,0.13414 -0.007,0.16228 -0.0281,0.0281 -0.0481,-0.0219 -0.0445,-0.11113 z m 0,-1.016 c 0.004,-0.0986 0.0241,-0.11869 0.0512,-0.0512 0.0244,0.0611 0.0215,0.13414 -0.007,0.16228 -0.0281,0.0281 -0.0481,-0.0219 -0.0445,-0.11113 z m 2.286,-4.74133 c 0.004,-0.0986 0.0241,-0.1187 0.0512,-0.0512 0.0244,0.0611 0.0214,0.13414 -0.007,0.16227 -0.0281,0.0281 -0.0481,-0.0219 -0.0445,-0.11112 z m -0.0748,-0.75495 c 0.002,-0.1397 0.0207,-0.1866 0.0422,-0.10422 0.0215,0.0824 0.02,0.19668 -0.003,0.254 -0.0232,0.0573 -0.0408,-0.0101 -0.039,-0.14978 z m 0,-2.62466 c 0.002,-0.1397 0.0207,-0.1866 0.0422,-0.10423 0.0215,0.0824 0.02,0.19668 -0.003,0.254 -0.0232,0.0573 -0.0408,-0.0101 -0.039,-0.14977 z m 0.0748,-0.85373 c 0.004,-0.0986 0.0241,-0.11869 0.0512,-0.0512 0.0244,0.0611 0.0214,0.13415 -0.007,0.16228 -0.0281,0.0281 -0.0481,-0.0219 -0.0445,-0.11113 z m 0.16934,-1.016 c 0.004,-0.0986 0.0241,-0.11869 0.0511,-0.0512 0.0245,0.0611 0.0215,0.13415 -0.007,0.16228 -0.0281,0.0281 -0.0482,-0.0219 -0.0445,-0.11113 z m 37.83931,-6.17361 c 0.10937,-0.11641 0.2179,-0.21166 0.24118,-0.21166 0.0233,0 -0.0471,0.0952 -0.15651,0.21166 -0.10937,0.11642 -0.2179,0.21167 -0.24119,0.21167 -0.0233,0 0.0471,-0.0952 0.15652,-0.21167 z m -25.67516,-0.43707 c 0.0582,-0.0235 0.15345,-0.0235 0.21166,0 0.0582,0.0235 0.0106,0.0427 -0.10583,0.0427 -0.11642,0 -0.16404,-0.0192 -0.10583,-0.0427 z m -8.1915,-1.83856 c 0,-0.0176 0.0667,-0.0843 0.14816,-0.14817 0.13429,-0.10531 0.13728,-0.10232 0.032,0.032 -0.11061,0.14103 -0.18013,0.18588 -0.18013,0.1162 z m 0.97366,-1.0687 c 0.22934,-0.23283 0.43602,-0.42333 0.4593,-0.42333 0.0233,0 -0.1453,0.1905 -0.37463,0.42333 -0.22933,0.23283 -0.43602,0.42333 -0.4593,0.42333 -0.0233,0 0.1453,-0.1905 0.37463,-0.42333 z m 0.889,-0.79397 c 0,-0.0176 0.0667,-0.0842 0.14817,-0.14816 0.13429,-0.10532 0.13728,-0.10232 0.032,0.032 -0.11061,0.14104 -0.18014,0.18589 -0.18014,0.1162 z m 4.445,-2.42336 c 0.0288,-0.0466 0.0691,-0.0847 0.0897,-0.0847 0.0205,0 0.0373,0.0381 0.0373,0.0847 0,0.0466 -0.0404,0.0847 -0.0897,0.0847 -0.0493,0 -0.0661,-0.0381 -0.0373,-0.0847 z"
         id="path900" />
      <path
         style="fill:#768699;stroke-width:0.999998"
         d="m 125.98629,153.18542 c 0.0824,-0.0215 0.19668,-0.02 0.254,0.003 0.0573,0.0232 -0.0101,0.0408 -0.14977,0.039 -0.1397,-0.002 -0.18661,-0.0207 -0.10423,-0.0422 z m 3.47134,0 c 0.0824,-0.0215 0.19667,-0.02 0.254,0.003 0.0573,0.0232 -0.0101,0.0408 -0.14978,0.039 -0.1397,-0.002 -0.1866,-0.0207 -0.10422,-0.0422 z m -13.33186,-2.87744 c -0.18412,-0.0485 -0.93109,-1.21228 -1.34486,-2.09524 -0.35893,-0.76592 -0.70816,-1.8976 -0.84723,-2.74542 -0.12416,-0.75694 -0.12054,-2.27874 0.007,-3.07048 l 0.10414,-0.64493 0.64758,-0.22542 c 1.65587,-0.57643 4.0641,-0.80203 5.55582,-0.52047 2.28473,0.43124 4.10266,1.96143 4.71244,3.96656 0.26758,0.87989 0.20225,2.01744 -0.16025,2.79027 -0.65682,1.40033 -2.03966,2.12719 -4.7047,2.47295 -0.91709,0.11898 -3.60717,0.16789 -3.97024,0.0722 z m 6.61693,-2.86175 c 0.15985,-0.0827 0.29307,-0.25867 0.39215,-0.5181 0.4618,-1.20921 -0.82937,-2.87187 -2.465,-3.17424 -1.27368,-0.23545 -2.82074,0.55424 -3.427,1.7493 -0.16445,0.32417 -0.21167,0.54636 -0.21167,0.99607 0,0.52925 0.0203,0.59634 0.23756,0.78317 0.27969,0.24058 0.76884,0.27363 1.0575,0.0714 0.10435,-0.0731 0.28016,-0.31122 0.39068,-0.52917 0.23787,-0.46906 0.41317,-0.64076 0.83347,-0.81637 0.58162,-0.24302 1.2708,-0.11683 1.66547,0.30494 0.10284,0.1099 0.28439,0.37832 0.40345,0.59648 0.12804,0.23465 0.32457,0.44999 0.48116,0.52724 0.32899,0.16229 0.34579,0.16254 0.64223,0.009 z m 12.70348,2.7876 c -3.1439,-0.43887 -4.6254,-1.49767 -4.91074,-3.50962 -0.28587,-2.01563 1.13288,-4.25807 3.31509,-5.23971 1.03511,-0.46564 1.57819,-0.55979 3.20432,-0.55548 2.62557,0.007 4.2758,0.49554 6.32434,1.87247 0.77252,0.51926 0.74858,0.47078 0.95477,1.93361 0.16743,1.1879 0.0588,4.24875 -0.16351,4.60851 -0.0614,0.0994 -1.49925,0.44273 -3.26327,0.7792 -1.23481,0.23553 -4.14522,0.2947 -5.461,0.11102 z m -1.68242,-2.97034 c 0.10648,-0.11336 0.29047,-0.38571 0.40885,-0.60525 0.57804,-1.07194 2.17057,-1.01145 2.71004,0.10294 0.23544,0.48635 0.5351,0.72558 0.90885,0.72558 0.61564,0 0.92234,-0.41923 0.84623,-1.1567 -0.16853,-1.63286 -2.19767,-2.96109 -3.8694,-2.53281 -1.24772,0.31965 -2.23109,1.35062 -2.34549,2.45902 -0.10549,1.0221 0.73432,1.65291 1.34092,1.00722 z m -18.31479,2.95944 c 0.0611,-0.0245 0.13415,-0.0214 0.16228,0.007 0.0281,0.0281 -0.0219,0.0481 -0.11112,0.0445 -0.0986,-0.004 -0.1187,-0.0241 -0.0512,-0.0512 z m -0.59266,-0.0847 c 0.0611,-0.0245 0.13414,-0.0215 0.16228,0.007 0.0281,0.0281 -0.0219,0.0482 -0.11113,0.0445 -0.0986,-0.004 -0.11869,-0.0241 -0.0512,-0.0512 z m -1.69334,-0.33867 c 0.0611,-0.0245 0.13415,-0.0214 0.16228,0.007 0.0281,0.0281 -0.0219,0.0481 -0.11112,0.0445 -0.0986,-0.004 -0.1187,-0.0241 -0.0512,-0.0512 z"
         id="path898" />
      <path
         style="fill:#c66b32;stroke-width:0.999998"
         d="m 125.97124,163.82668 c -3.45901,-0.28955 -6.77218,-1.36036 -9.57677,-3.09521 l -0.74206,-0.45902 -0.48798,0.22341 c -0.6858,0.31397 -1.45202,0.35797 -2.08316,0.11964 -0.59387,-0.22426 -1.14385,-0.63724 -1.46413,-1.0994 l -0.24454,-0.35287 -0.34571,0.33586 c -0.85179,0.82753 -1.79074,1.21859 -2.48015,1.03295 -0.49761,-0.13399 -0.82417,-0.43963 -1.12081,-1.049 -0.43319,-0.88986 -0.49565,-1.83967 -0.20984,-3.19094 0.038,-0.17952 -0.0134,-0.24801 -0.33846,-0.45095 -1.33292,-0.83222 -1.65397,-2.56416 -0.83144,-4.48531 0.30342,-0.70868 0.94759,-1.79541 1.46234,-2.46701 l 0.42318,-0.55212 -0.0851,-0.74247 c -0.24457,-2.13458 0.0652,-4.70007 0.85645,-7.09248 0.42293,-1.27882 1.49121,-3.46866 2.22623,-4.56348 1.88615,-2.8095 4.30807,-4.78432 6.82153,-5.56226 0.34925,-0.1081 0.65175,-0.20853 0.67222,-0.22318 0.0205,-0.0146 -0.0557,-0.0914 -0.16933,-0.17049 -1.03585,-0.72137 -1.5424,-1.70467 -1.26035,-2.44653 l 0.0892,-0.23462 0.18596,0.37379 c 0.10228,0.20559 0.41457,0.60703 0.69397,0.89209 0.87683,0.89459 2.13754,1.51686 3.55982,1.7571 l 0.6631,0.112 -0.54513,0.19915 c -0.63915,0.2335 -1.7728,0.78078 -2.14618,1.03609 -1.02122,0.69827 -1.38385,1.54656 -1.02663,2.40152 0.18092,0.43299 1.0038,1.26043 1.78102,1.79088 0.62431,0.42609 0.65413,0.45918 0.381,0.42275 -0.16299,-0.0217 -0.69639,-0.005 -1.18534,0.0362 -3.79499,0.32347 -6.44315,2.40567 -7.64574,6.0117 -0.68573,2.0562 -0.79837,5.34616 -0.25901,7.56524 1.41968,5.841 6.25394,9.85999 13.18712,10.96322 1.76006,0.28006 4.61459,0.25929 6.46324,-0.047 5.42723,-0.8993 9.75901,-3.81359 11.84422,-7.96842 l 0.34887,-0.69513 0.32194,0.46744 c 0.42737,0.62053 1.11868,1.22526 1.82493,1.59638 0.64218,0.33746 1.69425,0.63654 2.2391,0.63654 0.44193,0 0.45926,0.0483 0.46084,1.28372 0.003,2.2148 -0.70189,3.71376 -1.90427,4.0504 -0.82838,0.23194 -1.80537,-0.23073 -2.23512,-1.05845 -0.12088,-0.23283 -0.22369,-0.43358 -0.22845,-0.44611 -0.005,-0.0125 -0.32862,0.29508 -0.71967,0.68357 -0.41927,0.41652 -0.8842,0.78901 -1.13311,0.90782 -0.55423,0.26453 -1.28551,0.31777 -1.77852,0.12949 l -0.37445,-0.143 -0.5071,0.34436 c -1.69742,1.15269 -4.5393,2.29922 -6.90849,2.78714 -1.99869,0.41163 -4.63261,0.58872 -6.46927,0.43498 z m 19.16927,-26.21424 c -0.0931,-0.0183 -0.37888,-0.0736 -0.635,-0.1228 -1.14465,-0.2199 -2.50919,-0.81525 -3.175,-1.38525 l -0.33866,-0.28994 1.36707,0.0492 c 1.76335,0.0635 2.48539,-0.0746 4.03194,-0.77143 l 0.48835,-0.22002 -0.056,0.23243 c -0.11097,0.46091 -0.48356,1.07921 -0.93651,1.55409 l -0.46177,0.48411 0.13511,0.26129 c 0.13207,0.25539 0.13078,0.26106 -0.0576,0.25146 -0.10597,-0.005 -0.26887,-0.0248 -0.36201,-0.0432 z"
         id="path896" />
      <path
         style="fill:#5c6c7b;stroke-width:0.999998"
         d="m 125.98468,152.08507 c 0.0815,-0.0213 0.21484,-0.0213 0.29634,0 0.0815,0.0213 0.0148,0.0387 -0.14817,0.0387 -0.16298,0 -0.22966,-0.0174 -0.14817,-0.0387 z m 3.38667,0 c 0.0815,-0.0213 0.21484,-0.0213 0.29633,0 0.0815,0.0213 0.0148,0.0387 -0.14817,0.0387 -0.16298,0 -0.22965,-0.0174 -0.14816,-0.0387 z m -14.1605,-1.89849 c -0.25612,-0.0409 -1.21395,-0.23235 -2.12853,-0.42542 l -1.66285,-0.35104 -0.11412,-0.81351 c -0.15721,-1.12072 -0.13346,-3.13622 0.0508,-4.3075 l 0.15004,-0.95399 0.68818,-0.45593 c 0.3785,-0.25076 0.95082,-0.59948 1.27182,-0.77495 l 0.58363,-0.31902 -0.0636,0.33194 c -0.13993,0.73082 -0.19091,1.90056 -0.11778,2.7026 0.16623,1.82297 0.7723,3.43243 1.96875,5.22817 0.1805,0.27091 0.18935,0.26895 -0.62634,0.13865 z m 12.17612,-0.0483 c 0.0611,-0.0245 0.13415,-0.0215 0.16228,0.007 0.0281,0.0281 -0.0219,0.0482 -0.11112,0.0445 -0.0986,-0.004 -0.1187,-0.0241 -0.0512,-0.0512 z m 0.762,0 c 0.0611,-0.0245 0.13415,-0.0215 0.16228,0.007 0.0281,0.0281 -0.0219,0.0482 -0.11112,0.0445 -0.0986,-0.004 -0.1187,-0.0241 -0.0512,-0.0512 z m -1.85759,-0.429 c -0.10531,-0.13428 -0.10232,-0.13728 0.032,-0.032 0.0815,0.0639 0.14817,0.13058 0.14817,0.14816 0,0.0697 -0.0695,0.0248 -0.18014,-0.1162 z m -3.89974,-2.19567 c 0.0611,-0.0245 0.13414,-0.0214 0.16228,0.007 0.0281,0.0281 -0.0219,0.0481 -0.11113,0.0445 -0.0986,-0.004 -0.11869,-0.0241 -0.0512,-0.0512 z m -5.19917,-0.30199 -0.16129,-0.1905 0.1905,0.16129 c 0.17903,0.15157 0.22905,0.21971 0.16129,0.21971 -0.0161,0 -0.10179,-0.0857 -0.1905,-0.1905 z m 1.19338,0.0212 c 0.0843,-0.0931 0.17229,-0.16933 0.19558,-0.16933 0.0233,0 -0.0266,0.0762 -0.11091,0.16933 -0.0843,0.0931 -0.1723,0.16934 -0.19558,0.16934 -0.0233,0 0.0266,-0.0762 0.11091,-0.16934 z m 19.85433,0.13737 c 0,-0.0176 0.0667,-0.0843 0.14817,-0.14817 0.13428,-0.10531 0.13728,-0.10232 0.032,0.032 -0.1106,0.14103 -0.18013,0.18588 -0.18013,0.1162 z m 0.36288,-0.85703 c 6.8e-4,-0.23284 0.0171,-0.31804 0.0365,-0.18934 0.0195,0.1287 0.0189,0.3192 -10e-4,0.42333 -0.0201,0.10414 -0.036,-0.001 -0.0354,-0.23399 z m -6.19151,0.127 c 0,-0.11642 0.0192,-0.16404 0.0427,-0.10584 0.0235,0.0582 0.0235,0.15346 0,0.21167 -0.0235,0.0582 -0.0427,0.0106 -0.0427,-0.10583 z m -9.22068,-0.21167 c 9.4e-4,-0.18627 0.0183,-0.2525 0.0385,-0.14718 0.0203,0.10532 0.0195,0.25772 -0.002,0.33867 -0.0212,0.081 -0.0378,-0.005 -0.0368,-0.19149 z m -1.89482,-0.0212 c -0.10532,-0.13428 -0.10232,-0.13728 0.032,-0.032 0.0815,0.0639 0.14816,0.13058 0.14816,0.14816 0,0.0697 -0.0695,0.0248 -0.18013,-0.1162 z m 11.1155,-0.1905 c 0,-0.11641 0.0192,-0.16404 0.0427,-0.10583 0.0235,0.0582 0.0235,0.15346 0,0.21167 -0.0235,0.0582 -0.0427,0.0106 -0.0427,-0.10584 z m -15.41602,-0.0494 c 0.004,-0.0986 0.0241,-0.11869 0.0512,-0.0512 0.0245,0.0611 0.0215,0.13415 -0.007,0.16228 -0.0281,0.0281 -0.0481,-0.0219 -0.0445,-0.11113 z m 16.20698,-1.47461 c 0.18189,-0.18626 0.34975,-0.33866 0.37304,-0.33866 0.0233,0 -0.10648,0.1524 -0.28837,0.33866 -0.18188,0.18627 -0.34975,0.33867 -0.37303,0.33867 -0.0233,0 0.10648,-0.1524 0.28836,-0.33867 z m -10.84265,-0.0212 -0.24868,-0.27517 0.27517,0.24867 c 0.25649,0.2318 0.31408,0.30166 0.24867,0.30166 -0.0146,0 -0.13839,-0.12382 -0.27516,-0.27516 z m -4.69368,0.15853 c 0,-0.0176 0.0667,-0.0843 0.14817,-0.14817 0.13429,-0.10531 0.13728,-0.10232 0.032,0.032 -0.11061,0.14103 -0.18014,0.18588 -0.18014,0.1162 z m 2.39184,-1.12706 c 0.0815,-0.0213 0.21484,-0.0213 0.29633,0 0.0815,0.0213 0.0148,0.0387 -0.14817,0.0387 -0.16298,0 -0.22966,-0.0174 -0.14816,-0.0387 z m 15.19865,-0.002 c 0.10532,-0.0203 0.25772,-0.0195 0.33866,0.002 0.081,0.0212 -0.005,0.0378 -0.19148,0.0368 -0.18627,-9.4e-4 -0.2525,-0.0183 -0.14718,-0.0385 z"
         id="path894" />
      <path
         style="fill:#323941;stroke-width:0.999998"
         d="m 125.24874,153.03818 c -0.64997,-0.24144 -0.95251,-0.565 -0.86274,-0.92269 0.0767,-0.30558 0.37387,-0.36408 0.87558,-0.17237 0.77325,0.29548 1.72306,0.15965 2.27553,-0.32542 l 0.28907,-0.25381 0.28907,0.25381 c 0.55963,0.49136 1.41302,0.61009 2.2754,0.31658 0.5134,-0.17474 0.67032,-0.14696 0.85887,0.15204 0.1358,0.21535 -0.10032,0.56838 -0.54786,0.81911 -0.32506,0.18211 -0.48421,0.21167 -1.13981,0.21167 -0.65059,0 -0.83318,-0.0334 -1.24884,-0.22815 l -0.48683,-0.22815 -0.48516,0.22211 c -0.59788,0.27372 -1.57765,0.34643 -2.09228,0.15527 z m 1.97391,-2.92535 c -0.49459,-0.0872 -0.6775,-0.18577 -0.95367,-0.51399 -0.35412,-0.42085 -0.26914,-0.81442 0.22047,-1.02096 0.42429,-0.179 2.39425,-0.15675 2.74498,0.031 0.57734,0.30904 0.3499,1.12188 -0.39225,1.40178 -0.32969,0.12434 -1.18703,0.17844 -1.61953,0.10218 z m -9.68347,-2.7029 c -0.47296,-0.20253 -0.62382,-0.70852 -0.42377,-1.42131 0.48959,-1.74444 2.6355,-2.72117 4.29457,-1.9547 0.6085,0.28112 1.24049,0.86662 1.50584,1.39508 0.28255,0.56268 0.32376,1.32579 0.0916,1.69566 -0.3074,0.48971 -0.91912,0.4676 -1.23435,-0.0446 -0.4133,-0.67157 -0.52193,-0.8153 -0.73614,-0.97395 -0.26771,-0.19829 -0.84417,-0.30178 -1.23335,-0.22143 -0.42054,0.0868 -0.84053,0.41741 -1.07331,0.84483 -0.11555,0.21216 -0.2809,0.44983 -0.36746,0.52817 -0.19346,0.17507 -0.59639,0.24957 -0.82361,0.15227 z m 15.19116,-0.17065 c -0.24513,-0.24513 -0.28934,-0.43393 -0.24933,-1.06485 0.0446,-0.70272 0.82603,-1.69474 1.67268,-2.12335 0.4374,-0.22143 0.5718,-0.24714 1.29249,-0.24722 0.72804,-9e-5 0.85815,0.0254 1.37166,0.26867 1.06407,0.50409 1.75852,1.45412 1.76018,2.40798 0.001,0.57291 -0.20371,0.88875 -0.62756,0.96827 -0.38855,0.0729 -0.75332,-0.13339 -0.93681,-0.52979 -0.32535,-0.70282 -0.84966,-1.06505 -1.53277,-1.05891 -0.6666,0.006 -1.10248,0.29246 -1.42999,0.93982 -0.35533,0.70237 -0.88224,0.87769 -1.32055,0.43938 z"
         id="path892" />
    </g>
  </g>
</svg>
