<?xml version="1.0" encoding="UTF-8" standalone="no"?>
<svg
   viewBox="37.397 38.827 23.356 22.196"
   width="23.356"
   height="22.196"
   version="1.1"
   id="svg12398"
   sodipodi:docname="hometown.svg"
   inkscape:version="1.2.2 (b0a8486541, 2022-12-01)"
   xmlns:inkscape="http://www.inkscape.org/namespaces/inkscape"
   xmlns:sodipodi="http://sodipodi.sourceforge.net/DTD/sodipodi-0.dtd"
   xmlns="http://www.w3.org/2000/svg"
   xmlns:svg="http://www.w3.org/2000/svg">
  <defs
     id="defs12402" />
  <sodipodi:namedview
     id="namedview12400"
     pagecolor="#ffffff"
     bordercolor="#666666"
     borderopacity="1.0"
     inkscape:showpageshadow="2"
     inkscape:pageopacity="0.0"
     inkscape:pagecheckerboard="0"
     inkscape:deskcolor="#d1d1d1"
     showgrid="false"
     inkscape:zoom="13.921683"
     inkscape:cx="7.075294"
     inkscape:cy="14.797062"
     inkscape:window-width="1920"
     inkscape:window-height="1043"
     inkscape:window-x="0"
     inkscape:window-y="0"
     inkscape:window-maximized="1"
     inkscape:current-layer="svg12398" />
  <g
     style="fill:#d3d3d3;fill-opacity:1"
     transform="matrix(0.725344, 0, 0, 0.725344, 12.807959, 13.657597)"
     id="g12396">
    <path
       d="M55.9,53.9H35.3c-0.7,0-1.3,0.6-1.3,1.3s0.6,1.3,1.3,1.3h20.6c0.7,0,1.3-0.6,1.3-1.3S56.6,53.9,55.9,53.9z"
       id="path12382"
       style="fill:#d3d3d3;fill-opacity:1" />
    <path
       d="M55.9,58.2H35.3c-0.7,0-1.3,0.6-1.3,1.3s0.6,1.3,1.3,1.3h20.6c0.7,0,1.3-0.6,1.3-1.3S56.6,58.2,55.9,58.2z"
       id="path12384"
       style="fill:#d3d3d3;fill-opacity:1" />
    <path
       d="M55.9,62.6H35.3c-0.7,0-1.3,0.6-1.3,1.3s0.6,1.3,1.3,1.3h20.6c0.7,0,1.3-0.6,1.3-1.3S56.6,62.6,55.9,62.6z"
       id="path12386"
       style="fill:#d3d3d3;fill-opacity:1" />
    <path
       d="M64.8,53.9c-0.7,0-1.3,0.6-1.3,1.3v8.8c0,0.7,0.6,1.3,1.3,1.3s1.3-0.6,1.3-1.3v-8.8C66,54.4,65.4,53.9,64.8,53.9z"
       id="path12388"
       style="fill:#d3d3d3;fill-opacity:1" />
    <path
       d="M60.4,53.9c-0.7,0-1.3,0.6-1.3,1.3v8.8c0,0.7,0.6,1.3,1.3,1.3s1.3-0.6,1.3-1.3v-8.8C61.6,54.4,61.1,53.9,60.4,53.9z"
       id="path12390"
       style="fill:#d3d3d3;fill-opacity:1" />
    <path
       d="M63.7,48.3c1.3-0.7,2-2.5,2-5.6c0-3.6-0.9-7.8-3.3-7.8s-3.3,4.2-3.3,7.8c0,3.1,0.7,4.9,2,5.6v2.4c0,0.7,0.6,1.3,1.3,1.3   s1.3-0.6,1.3-1.3V48.3z M62.4,37.8c0.4,0.8,0.8,2.5,0.8,4.9c0,2.5-0.5,3.4-0.8,3.4s-0.8-0.9-0.8-3.4C61.7,40.3,62.1,38.6,62.4,37.8   z"
       id="path12392"
       style="fill:#d3d3d3;fill-opacity:1" />
    <path
       d="M57,42.7c0-0.1-0.1-0.1-0.1-0.2l-3.2-4.1c-0.2-0.3-0.6-0.5-1-0.5h-1.6v-1.9c0-0.7-0.6-1.3-1.3-1.3s-1.3,0.6-1.3,1.3V38   h-3.9h-1.1h-5.2c-0.4,0-0.7,0.2-1,0.5l-3.2,4.1c0,0.1-0.1,0.1-0.1,0.2c0,0-0.1,0.1-0.1,0.1C34,43,34,43.2,34,43.3v7.4   c0,0.7,0.6,1.3,1.3,1.3h5.2h7.4h8c0.7,0,1.3-0.6,1.3-1.3v-7.4c0-0.2,0-0.3-0.1-0.4C57,42.8,57,42.8,57,42.7z M41.7,49.5h-5.2v-4.9   h10.2v4.9H41.7z M48.5,42.1l-1.2-1.6h4.8l1.2,1.6H48.5z M44.1,40.5l1.2,1.6h-7.5l1.2-1.6H44.1z M49.2,44.6h5.5v4.9h-5.5V44.6z"
       id="path12394"
       style="fill:#d3d3d3;fill-opacity:1" />
  </g>
</svg>
