<?xml version="1.0" encoding="iso-8859-1"?>
<!-- Generator: Adobe Illustrator 19.0.0, SVG Export Plug-In . SVG Version: 6.00 Build 0)  -->
<svg version="1.1" id="Layer_1" xmlns="http://www.w3.org/2000/svg" xmlns:xlink="http://www.w3.org/1999/xlink" x="0px" y="0px"
	 viewBox="0 0 512 512" style="enable-background:new 0 0 512 512;" xml:space="preserve">
<path style="fill:#BDFDFF;" d="M0,488.727C0,501.58,10.42,512,23.273,512H256h232.727C501.58,512,512,501.58,512,488.727v-93.091
	V23.273C512,10.42,501.58,0,488.727,0H256H23.273C16.043,0,9.584,3.297,5.314,8.47c-1.896,2.298-3.361,4.968-4.268,7.883
	C0.366,18.538,0,20.863,0,23.273"/>
<path style="fill:#A78966;" d="M507.412,381.763l-18.685-25.166l-74.406-100.214c-4.389-5.914-11.32-9.399-18.685-9.399
	s-14.296,3.486-18.685,9.399l-73.745,99.322L256,287.517l-73.956-106.826c-4.347-6.277-11.498-10.024-19.135-10.024
	s-14.787,3.747-19.135,10.026L46.545,321.134l-23.273,33.617L4.138,382.39C1.444,386.281,0,390.903,0,395.636v93.091
	C0,501.58,10.42,512,23.273,512H256h232.727C501.58,512,512,501.58,512,488.727v-93.091
	C512,390.639,510.391,385.775,507.412,381.763z"/>
<path style="fill:#9BC9FF;" d="M23.273,0C10.42,0,0,10.42,0,23.273v372.364c0-4.734,1.444-9.356,4.138-13.247l19.135-27.64
	l23.273-33.617l97.229-140.442c4.347-6.277,11.498-10.024,19.135-10.024s14.787,3.747,19.135,10.026L256,287.517V183.128v-55.954V0
	H23.273z"/>
<path style="fill:#806749;" d="M182.044,180.693c-4.347-6.279-11.498-10.026-19.135-10.026s-14.787,3.747-19.135,10.026
	L46.545,321.134l-23.273,33.617L4.138,382.39C1.444,386.281,0,390.903,0,395.636v93.091C0,501.58,10.42,512,23.273,512H256V287.517
	L182.044,180.693z"/>
<circle style="fill:#FFB655;" cx="302.545" cy="155.152" r="54.303"/>
</svg>
