<?xml version="1.0" encoding="UTF-8" standalone="no"?>
<!-- Generator: Adobe Illustrator 19.0.0, SVG Export Plug-In . SVG Version: 6.00 Build 0)  -->

<svg
   version="1.1"
   id="Layer_1"
   x="0px"
   y="0px"
   viewBox="0 0 512 512"
   style="enable-background:new 0 0 512 512;"
   xml:space="preserve"
   sodipodi:docname="search.svg"
   inkscape:version="1.1.1 (3bf5ae0d25, 2021-09-20, custom)"
   xmlns:inkscape="http://www.inkscape.org/namespaces/inkscape"
   xmlns:sodipodi="http://sodipodi.sourceforge.net/DTD/sodipodi-0.dtd"
   xmlns="http://www.w3.org/2000/svg"
   xmlns:svg="http://www.w3.org/2000/svg"><defs
   id="defs55">
	
	

	
	
</defs><sodipodi:namedview
   id="namedview53"
   pagecolor="#ffffff"
   bordercolor="#666666"
   borderopacity="1.0"
   inkscape:pageshadow="2"
   inkscape:pageopacity="0.0"
   inkscape:pagecheckerboard="0"
   showgrid="false"
   showguides="false"
   inkscape:zoom="0.58073907"
   inkscape:cx="219.54783"
   inkscape:cy="323.72542"
   inkscape:window-width="1920"
   inkscape:window-height="1043"
   inkscape:window-x="0"
   inkscape:window-y="0"
   inkscape:window-maximized="1"
   inkscape:current-layer="Layer_1" />



<path
   style="fill:#58595b"
   d="M 91.321762,496.32631 254.19134,333.44389 C 371.49511,394.20555 511.98321,308.63614 511.97719,176.58314 511.97275,79.209145 432.74814,-0.00824478 335.37214,-0.0038073 203.30014,0.0022113 117.77655,140.51611 178.53789,257.79634 L 15.668314,420.68276 c -20.8530492,20.85495 -20.8545027,54.79195 0.0034,75.648 l 0,0.002 c 20.902952,20.90005 54.741953,20.90551 75.65,-0.006 z M 335.37332,25.852193 c 83.118,-0.0038 150.74308,67.61313 150.74687,150.732127 0.005,117.047 -127.93039,188.89783 -227.60109,129.72338 -21.71258,-12.87902 -40.07142,-31.30618 -52.84541,-52.8406 0,-0.002 -0.002,-0.003 -0.002,-0.003 0,-0.002 -0.002,-0.002 -0.002,-0.002 C 146.39615,153.6448 218.50932,25.857518 335.37332,25.852193 Z"
   id="path14"
   sodipodi:nodetypes="ccsscccccssccccs" /><path
   style="fill:#00a3ff;fill-opacity:0.99607843"
   d="M 91.321762,496.32631 254.19134,333.44389 C 371.49511,394.20555 511.98321,308.63614 511.97719,176.58314 511.97275,79.209145 432.74814,-0.00824478 335.37214,-0.0038073 203.30014,0.0022113 117.77655,140.51611 178.53789,257.79634 L 15.668314,420.68276 c -20.8530492,20.85495 -20.8545027,54.79195 0.0034,75.648 l 0,0.002 c 20.902952,20.90005 54.741953,20.90551 75.65,-0.006 z M 335.37332,25.852193 c 83.118,-0.0038 150.74308,67.61313 150.74687,150.732127 0.005,117.047 -127.93039,188.89783 -227.60109,129.72338 -21.71258,-12.87902 -40.07142,-31.30618 -52.84541,-52.8406 0,-0.002 -0.002,-0.003 -0.002,-0.003 0,-0.002 -0.002,-0.002 -0.002,-0.002 C 146.39615,153.6448 218.50932,25.857518 335.37332,25.852193 Z"
   id="path5180"
   sodipodi:nodetypes="ccsscccccssccccs" />

<g
   id="g22">
</g>
<g
   id="g24">
</g>
<g
   id="g26">
</g>
<g
   id="g28">
</g>
<g
   id="g30">
</g>
<g
   id="g32">
</g>
<g
   id="g34">
</g>
<g
   id="g36">
</g>
<g
   id="g38">
</g>
<g
   id="g40">
</g>
<g
   id="g42">
</g>
<g
   id="g44">
</g>
<g
   id="g46">
</g>
<g
   id="g48">
</g>
<g
   id="g50">
</g>
<path
   id="path9722"
   style="color:#000000;font-style:normal;font-variant:normal;font-weight:normal;font-stretch:normal;font-size:medium;line-height:normal;font-family:sans-serif;font-variant-ligatures:normal;font-variant-position:normal;font-variant-caps:normal;font-variant-numeric:normal;font-variant-alternates:normal;font-feature-settings:normal;text-indent:0;text-align:start;text-decoration:none;text-decoration-line:none;text-decoration-style:solid;text-decoration-color:#000000;letter-spacing:normal;word-spacing:normal;text-transform:none;writing-mode:lr-tb;direction:ltr;text-orientation:mixed;dominant-baseline:auto;baseline-shift:baseline;text-anchor:start;white-space:normal;shape-padding:0;clip-rule:nonzero;display:inline;overflow:visible;visibility:visible;isolation:auto;mix-blend-mode:normal;color-interpolation:sRGB;color-interpolation-filters:linearRGB;solid-color:#000000;solid-opacity:1;vector-effect:none;fill:#a730b8;fill-opacity:1;fill-rule:nonzero;stroke:none;stroke-width:41.5748;stroke-linecap:butt;stroke-linejoin:miter;stroke-miterlimit:4;stroke-dasharray:none;stroke-dashoffset:0;stroke-opacity:1;color-rendering:auto;image-rendering:auto;shape-rendering:auto;text-rendering:auto;enable-background:accumulate"
   d="M 260.86133 185.34961 C 257.19644 192.36846 251.45376 198.08454 244.41797 201.7168 L 334.6875 292.33789 L 356.44922 281.30859 L 260.86133 185.34961 z M 379.92773 304.87695 L 358.16602 315.90625 L 364.08008 321.8457 A 148.44389 148.13411 0 0 0 389.48047 314.4668 L 379.92773 304.87695 z " /><path
   id="path9729"
   style="color:#000000;font-style:normal;font-variant:normal;font-weight:normal;font-stretch:normal;font-size:medium;line-height:normal;font-family:sans-serif;font-variant-ligatures:normal;font-variant-position:normal;font-variant-caps:normal;font-variant-numeric:normal;font-variant-alternates:normal;font-feature-settings:normal;text-indent:0;text-align:start;text-decoration:none;text-decoration-line:none;text-decoration-style:solid;text-decoration-color:#000000;letter-spacing:normal;word-spacing:normal;text-transform:none;writing-mode:lr-tb;direction:ltr;text-orientation:mixed;dominant-baseline:auto;baseline-shift:baseline;text-anchor:start;white-space:normal;shape-padding:0;clip-rule:nonzero;display:inline;overflow:visible;visibility:visible;isolation:auto;mix-blend-mode:normal;color-interpolation:sRGB;color-interpolation-filters:linearRGB;solid-color:#000000;solid-opacity:1;vector-effect:none;fill:#5496be;fill-opacity:1;fill-rule:nonzero;stroke:none;stroke-width:41.5748;stroke-linecap:butt;stroke-linejoin:miter;stroke-miterlimit:4;stroke-dasharray:none;stroke-dashoffset:0;stroke-opacity:1;color-rendering:auto;image-rendering:auto;shape-rendering:auto;text-rendering:auto;enable-background:accumulate"
   d="M 475.37695 225.76562 L 433.26562 247.10547 L 437.0332 271.20898 L 457.60742 260.78125 A 148.44389 148.13411 0 0 0 475.37695 225.76562 z M 403.59766 262.14062 L 292.49805 318.44531 A 148.44389 148.13411 0 0 0 331.58594 324.65039 L 407.36523 286.24414 L 403.59766 262.14062 z " /><path
   id="path9713"
   style="color:#000000;font-style:normal;font-variant:normal;font-weight:normal;font-stretch:normal;font-size:medium;line-height:normal;font-family:sans-serif;font-variant-ligatures:normal;font-variant-position:normal;font-variant-caps:normal;font-variant-numeric:normal;font-variant-alternates:normal;font-feature-settings:normal;text-indent:0;text-align:start;text-decoration:none;text-decoration-line:none;text-decoration-style:solid;text-decoration-color:#000000;letter-spacing:normal;word-spacing:normal;text-transform:none;writing-mode:lr-tb;direction:ltr;text-orientation:mixed;dominant-baseline:auto;baseline-shift:baseline;text-anchor:start;white-space:normal;shape-padding:0;clip-rule:nonzero;display:inline;overflow:visible;visibility:visible;isolation:auto;mix-blend-mode:normal;color-interpolation:sRGB;color-interpolation-filters:linearRGB;solid-color:#000000;solid-opacity:1;vector-effect:none;fill:#ce3d1a;fill-opacity:1;fill-rule:nonzero;stroke:none;stroke-width:41.5748;stroke-linecap:butt;stroke-linejoin:miter;stroke-miterlimit:4;stroke-dasharray:none;stroke-dashoffset:0;stroke-opacity:1;color-rendering:auto;image-rendering:auto;shape-rendering:auto;text-rendering:auto;enable-background:accumulate"
   d="M 364.73828 111.29688 L 306.43359 225.12305 L 323.64844 242.4043 L 385.38086 121.88867 A 38.44558 38.44558 0 0 1 364.73828 111.29688 z M 291.26953 254.72852 L 264.74023 306.51758 A 148.44389 148.13411 0 0 0 285.94531 316.00586 L 308.48242 272.00781 L 291.26953 254.72852 z " /><path
   id="path1015"
   style="color:#000000;font-style:normal;font-variant:normal;font-weight:normal;font-stretch:normal;font-size:medium;line-height:normal;font-family:sans-serif;font-variant-ligatures:normal;font-variant-position:normal;font-variant-caps:normal;font-variant-numeric:normal;font-variant-alternates:normal;font-feature-settings:normal;text-indent:0;text-align:start;text-decoration:none;text-decoration-line:none;text-decoration-style:solid;text-decoration-color:#000000;letter-spacing:normal;word-spacing:normal;text-transform:none;writing-mode:lr-tb;direction:ltr;text-orientation:mixed;dominant-baseline:auto;baseline-shift:baseline;text-anchor:start;white-space:normal;shape-padding:0;clip-rule:nonzero;display:inline;overflow:visible;visibility:visible;isolation:auto;mix-blend-mode:normal;color-interpolation:sRGB;color-interpolation-filters:linearRGB;solid-color:#000000;solid-opacity:1;vector-effect:none;fill:#d0188f;fill-opacity:1;fill-rule:nonzero;stroke:none;stroke-width:41.5748;stroke-linecap:butt;stroke-linejoin:miter;stroke-miterlimit:4;stroke-dasharray:none;stroke-dashoffset:0;stroke-opacity:1;color-rendering:auto;image-rendering:auto;shape-rendering:auto;text-rendering:auto;enable-background:accumulate"
   d="M 243.91602 201.96875 A 38.44558 38.44558 0 0 1 224.71094 205.98438 A 38.44558 38.44558 0 0 1 221 205.5957 L 233.18164 283.51562 A 148.44389 148.13411 0 0 0 259.8418 303.84961 L 243.91602 201.96875 z " /><path
   id="path1678"
   style="color:#000000;font-style:normal;font-variant:normal;font-weight:normal;font-stretch:normal;font-size:medium;line-height:normal;font-family:sans-serif;font-variant-ligatures:normal;font-variant-position:normal;font-variant-caps:normal;font-variant-numeric:normal;font-variant-alternates:normal;font-feature-settings:normal;text-indent:0;text-align:start;text-decoration:none;text-decoration-line:none;text-decoration-style:solid;text-decoration-color:#000000;letter-spacing:normal;word-spacing:normal;text-transform:none;writing-mode:lr-tb;direction:ltr;text-orientation:mixed;dominant-baseline:auto;baseline-shift:baseline;text-anchor:start;white-space:normal;shape-padding:0;clip-rule:nonzero;display:inline;overflow:visible;visibility:visible;isolation:auto;mix-blend-mode:normal;color-interpolation:sRGB;color-interpolation-filters:linearRGB;solid-color:#000000;solid-opacity:1;vector-effect:none;fill:#ebe305;fill-opacity:1;fill-rule:nonzero;stroke:none;stroke-width:41.5748;stroke-linecap:butt;stroke-linejoin:miter;stroke-miterlimit:4;stroke-dasharray:none;stroke-dashoffset:0;stroke-opacity:1;color-rendering:auto;image-rendering:auto;shape-rendering:auto;text-rendering:auto;enable-background:accumulate"
   d="M 425.81641 101.75 A 38.44558 38.44558 0 0 1 409.37109 118.11914 L 482.99805 192.03125 A 148.44389 148.13411 0 0 0 484.08984 176.80664 A 148.44389 148.13411 0 0 0 482.98633 159.13867 L 425.81641 101.75 z " /><path
   style="color:#000000;font-style:normal;font-variant:normal;font-weight:normal;font-stretch:normal;font-size:medium;line-height:normal;font-family:sans-serif;font-variant-ligatures:normal;font-variant-position:normal;font-variant-caps:normal;font-variant-numeric:normal;font-variant-alternates:normal;font-feature-settings:normal;text-indent:0;text-align:start;text-decoration:none;text-decoration-line:none;text-decoration-style:solid;text-decoration-color:#000000;letter-spacing:normal;word-spacing:normal;text-transform:none;writing-mode:lr-tb;direction:ltr;text-orientation:mixed;dominant-baseline:auto;baseline-shift:baseline;text-anchor:start;white-space:normal;shape-padding:0;clip-rule:nonzero;display:inline;overflow:visible;visibility:visible;isolation:auto;mix-blend-mode:normal;color-interpolation:sRGB;color-interpolation-filters:linearRGB;solid-color:#000000;solid-opacity:1;vector-effect:none;fill:#f47601;fill-opacity:1;fill-rule:nonzero;stroke:none;stroke-width:41.5748;stroke-linecap:butt;stroke-linejoin:miter;stroke-miterlimit:4;stroke-dasharray:none;stroke-dashoffset:0;stroke-opacity:1;color-rendering:auto;image-rendering:auto;shape-rendering:auto;text-rendering:auto;enable-background:accumulate"
   d="M 353.8637,90.198535 254.20883,140.7012 a 38.44558,38.44558 0 0 1 10.48746,20.69589 l 99.65378,-50.50484 A 38.44558,38.44558 0 0 1 353.8637,90.198535 Z"
   id="path1680"
   inkscape:connector-curvature="0" /><path
   id="path9758"
   style="color:#000000;font-style:normal;font-variant:normal;font-weight:normal;font-stretch:normal;font-size:medium;line-height:normal;font-family:sans-serif;font-variant-ligatures:normal;font-variant-position:normal;font-variant-caps:normal;font-variant-numeric:normal;font-variant-alternates:normal;font-feature-settings:normal;text-indent:0;text-align:start;text-decoration:none;text-decoration-line:none;text-decoration-style:solid;text-decoration-color:#000000;letter-spacing:normal;word-spacing:normal;text-transform:none;writing-mode:lr-tb;direction:ltr;text-orientation:mixed;dominant-baseline:auto;baseline-shift:baseline;text-anchor:start;white-space:normal;shape-padding:0;clip-rule:nonzero;display:inline;overflow:visible;visibility:visible;isolation:auto;mix-blend-mode:normal;color-interpolation:sRGB;color-interpolation-filters:linearRGB;solid-color:#000000;solid-opacity:1;vector-effect:none;fill:#57c115;fill-opacity:1;fill-rule:nonzero;stroke:none;stroke-width:41.5748;stroke-linecap:butt;stroke-linejoin:miter;stroke-miterlimit:4;stroke-dasharray:none;stroke-dashoffset:0;stroke-opacity:1;color-rendering:auto;image-rendering:auto;shape-rendering:auto;text-rendering:auto;enable-background:accumulate"
   d="M 409.1875 118.21094 C 403.16136 121.29682 396.42718 122.73664 389.66602 122.38477 C 388.53966 122.31697 387.41682 122.19972 386.30078 122.0332 L 395.12891 178.55859 L 419.21484 182.42383 L 409.1875 118.21094 z M 400.25977 211.41992 L 414.43945 302.2207 A 148.44389 148.13411 0 0 0 435.42188 286.19727 L 424.34766 215.2832 L 400.25977 211.41992 z " /><path
   id="path9760"
   style="color:#000000;font-style:normal;font-variant:normal;font-weight:normal;font-stretch:normal;font-size:medium;line-height:normal;font-family:sans-serif;font-variant-ligatures:normal;font-variant-position:normal;font-variant-caps:normal;font-variant-numeric:normal;font-variant-alternates:normal;font-feature-settings:normal;text-indent:0;text-align:start;text-decoration:none;text-decoration-line:none;text-decoration-style:solid;text-decoration-color:#000000;letter-spacing:normal;word-spacing:normal;text-transform:none;writing-mode:lr-tb;direction:ltr;text-orientation:mixed;dominant-baseline:auto;baseline-shift:baseline;text-anchor:start;white-space:normal;shape-padding:0;clip-rule:nonzero;display:inline;overflow:visible;visibility:visible;isolation:auto;mix-blend-mode:normal;color-interpolation:sRGB;color-interpolation-filters:linearRGB;solid-color:#000000;solid-opacity:1;vector-effect:none;fill:#dbb210;fill-opacity:1;fill-rule:nonzero;stroke:none;stroke-width:41.5748;stroke-linecap:butt;stroke-linejoin:miter;stroke-miterlimit:4;stroke-dasharray:none;stroke-dashoffset:0;stroke-opacity:1;color-rendering:auto;image-rendering:auto;shape-rendering:auto;text-rendering:auto;enable-background:accumulate"
   d="M 264.76758 161.82031 A 38.44558 38.44558 0 0 1 265.18945 169.6875 A 38.44558 38.44558 0 0 1 261.19336 184.74414 L 317.76367 193.83008 L 328.88281 172.11719 L 264.76758 161.82031 z M 361.7207 177.39062 L 350.60156 199.10547 L 477.71094 219.51953 A 148.44389 148.13411 0 0 0 482.6543 196.81445 L 361.7207 177.39062 z " /><circle
   style="display:inline;fill:#ffca00;fill-opacity:0.995968;stroke:none;stroke-width:1;stroke-opacity:0.960784"
   id="path817"
   cx="395.74576"
   cy="62.564941"
   transform="rotate(3.1178167)"
   r="34.950527" /><circle
   id="path827"
   style="display:inline;fill:#ff0000;fill-opacity:0.995968;stroke:none;stroke-width:1;stroke-opacity:0.960784"
   cx="235.58105"
   cy="155.0128"
   transform="rotate(3.1178167)"
   r="34.950527" /></svg>
